<svg width="935.52" height="625.88" version="1.1" viewBox="0 0 935.52 625.88" xmlns="http://www.w3.org/2000/svg">
   <defs>
      <clipPath id="clipPath22">
         <path d="m5313 12h7500v5e3h-7500z"/>
      </clipPath>
      <clipPath id="clipPath28">
         <path d="m11753 5025.5c24.2 25.5 65.5 76.08 51.4 121.92-53.2-57.01-89.7-164.85-155.8-194.28-88-39.21-114.6-19.27-158.8-128.56-4.3-19.05-13.9-32.13-25.9-41.16-13.6 6.51-25.5 17.47-33.4 35.32-64.7 98.55-86.9 73.82-180.9 95.08-70.6 15.97-127.4 114.62-190.7 160.16-4.9-47.71 45.5-89.27 74.2-109.55-8.6 1.13-17.5 1.02-26.3 0.92-9-0.11-17.9-0.21-26.3 0.94 1.3-39.05 30.3-64.9 56.2-81.89-4.7 0.58-9.4-0.44-14-1.47-3.9-0.86-7.7-1.73-11.5-1.62-12.6-105.22 91.5-97.72 182-90.22 52.5 4.34 100.4 8.68 118.3-8.9-21.9-8.59-28.4-20.4-28.2-47.38 6.3 0.17 14.8-0.08 24.7-0.33 13.2-0.34 28.8-0.68 44.5-0.03 5.3 0.14 10.7 0.53 16.1 1.09 5.5 0.51 10.9 1.18 16 2.08 27.1 4.22 53.5 11.41 67.8 13.85-5.1 26.49-13.7 36.82-36.9 40.96 38.6 56.56 327.2-3.28 275.2 155.82-3.6-0.82-7.5-0.73-11.5-0.65-4.7 0.1-9.6 0.21-14.1-1.28 22.1 21.71 45.5 52.73 39.1 91.28-16-5.54-34.8-6.52-51.2-12.1m-497.4 707.08c12.2 2.22 34 7.84 36 22.1-26.8-5.15-55.5-26.3-82.6-22.07-36.1 5.63-42.2 15.47-73.8-4.68-4.4-4.11-9.6-5.77-15.1-5.94-3.6 4.08-6.1 9.01-6.1 15.01-7.3 36.79-18.6 34.39-47.6 56.58-21.7 16.66-26.3 52.07-41.1 75.01-8.9-11.36 2.1-30.98 8.9-41.29-5.6 3.64-12.4 6.26-17.8 9.84-5.4-10.24 0.6-22.04 6.9-30.99-2.8 1.8-6.4 2.22-9.2 3.73-31.9-39.05 78.4-57.89 87.9-78.88-8.8 1.7-12.8-0.18-16.8-7.13 5-2.48 14.1-7.82 23.6-12.41 1.8-0.9 3.8-1.76 5.7-2.59 2-0.84 3.9-1.63 5.8-2.32 9.9-3.75 20-6.6 25.3-8.51 2.3 7.69 0.9 11.88-6.4 17.07 8.4 2.97 27.2-5.32 47.3-13.61 31.6-13.01 66.6-26.03 70.4 4.56-3 0.95-5.8 3.29-9 4.05 10.8 1.64 23.5 5.42 27.1 16.45-6.3 1.43-12.9 4.52-19.4 6.02m-5182.9-4913.5c26.45 6.652 74.48 22.68 84.25 58.57-58.48-15.3-127.15-70.839-182.69-62.687-73.96 10.84-83.09 34.918-157.42-18.352-10.75-10.691-22.42-15.3-34.06-16.23-6.18 9.89-9.43 22.019-7.25 37.019-1.51 91.442-26.28 84.411-79.08 137.35-39.63 39.758-35.94 127.99-58.51 184.08-22.99-29.23-7.25-77.36 3.17-102.58-10.34 8.63-23.66 14.57-33.71 23.06-15.36-26.13-7.07-55.11 2.83-76.969-5.19 4.269-12.7 4.988-17.95 8.531-82.04-100.64 143.51-137.87 155.67-189.57-17.94 3.468-27.08-1.59-38.14-19.34 9.67-5.77 26.74-18.313 45.19-28.942 3.49-2.101 7.2-4.078 11.01-5.968 3.8-1.942 7.59-3.731 11.37-5.293 19.51-8.477 39.76-14.707 50.16-19.039 7.67 19.461 6.28 29.808-7.2 42.16 18.89 8.152 55.1-10.699 94.24-29.539 61.93-29.821 131.2-59.641 150.76 17.469-5.97 2.109-11.02 7.71-17.55 9.339 23.46 5.071 51.68 15.692 63.5 43.59-12.79 3.02-25.51 10.16-38.59 13.34m1956.2 659.59c11.78 15.87 31.36 46.89 20.38 71.5-25.77-35.41-38.81-98.04-73.69-118.96-46.46-27.85-62.61-18.54-79.86-82.5-1.13-10.93-5.55-18.87-11.65-24.73-8 2.71-15.39 8.03-21.05 17.43-42.79 50.58-53.46 35.29-107.34 40.76-40.47 4.1-78.88 55.28-117.27 76.38 0.53-26.94 31.43-46.71 48.84-56.06-4.83 0.04-9.77-0.62-14.68-1.27-5.01-0.67-9.99-1.34-14.8-1.27 3.37-21.7 21.32-34.15 36.89-41.87-4.86 0.01-9.4-3.02-13.99-3.45 0.1-58.78 56.22-48.57 105.75-38.36 29.72 6.13 57.07 12.26 68.52 3.47-11.66-6.28-14.46-13.32-12.52-28.35 8.07 1.21 23.4 2.01 38.62 4.51 2.92 0.42 5.9 1.01 8.91 1.69 3.02 0.67 5.97 1.4 8.8 2.26 14.84 4.2 29.05 9.99 36.87 12.33-4.63 14.43-10.16 19.6-23.37 20.34 17.68 34.18 182.74 20.4 142.92 105.62-4.32-1.55-9.73-0.73-14.12-2.81 10.82 13.6 21.77 32.5 15.6 53.57-8.56-4.18-18.96-6-27.76-10.23m-1265.9-926.56c19.29 4.309 54.39 15 62.16 40.801-42.66-9.973-93.46-48.859-133.53-41.891-53.35 9.282-59.5 26.891-114.36-10.25-7.99-7.539-16.53-10.66-24.97-11.109-4.3 7.289-6.42 16.141-4.54 26.961 0.66 66.25-17.41 61.637-54.62 100.99-27.95 29.559-23.58 93.391-38.84 134.46-17.22-20.742-6.74-55.902 0.32-74.359-7.32 6.437-16.85 11.008-23.97 17.348-11.63-18.629-6.19-39.778 0.56-55.809-3.68 3.199-9.1 3.859-12.84 6.531-61.35-71.301 101.29-102.61 109.1-140.29-12.93 2.871-19.65-0.629-27.99-13.277 6.89-4.352 19.01-13.774 32.16-21.82 2.49-1.582 5.14-3.102 7.86-4.551 2.72-1.469 5.44-2.84 8.13-4.039 13.98-6.512 28.52-11.422 35.97-14.75 5.93 13.937 5.12 21.468-4.4 30.66 13.88 5.558 39.85-8.883 67.92-23.332 44.22-22.738 93.65-45.488 109.28 9.871-4.29 1.648-7.83 5.801-12.52 7.098 17.08 3.242 37.72 10.371 46.82 30.363-9.21 2.43-18.27 7.848-27.7 10.398m4385 1085.3c13.4 14.52 36.2 43.27 27.9 68.92-29.4-32.46-49.1-93.35-86-110.41-49.2-22.72-64.2-11.73-88.2-73.49-2.3-10.75-7.6-18.17-14.3-23.34-7.6 3.55-14.4 9.63-19 19.59-37.2 54.86-49.4 40.79-102.4 51.99-39.8 8.41-72.5 63.4-108.4 88.48-2.4-26.84 26.2-49.8 42.5-60.96-4.8 0.57-9.8 0.44-14.8 0.31-5-0.14-10-0.27-14.7 0.31 1-21.93 17.5-36.23 32.2-45.56-2.7 0.29-5.3-0.32-7.9-0.94-2.1-0.51-4.3-1.03-6.4-1.01-6.3-59.12 52-54.2 102.7-49.27 29.6 2.86 56.6 5.73 66.8-4.05-12.2-5-15.8-11.68-15.4-26.83 3.3 0.14 7.8 0.07 13 0.01 7.6-0.09 16.7-0.18 25.8 0.33 3 0.12 6 0.38 9.1 0.73 3 0.33 6.1 0.75 9 1.3 15.2 2.6 29.9 6.84 37.9 8.32-3 14.85-8 20.59-21 22.73 21.2 32.08 183.9 0.74 153.4 89.73-2.1-0.48-4.2-0.47-6.5-0.45-2.6 0.02-5.4 0.04-7.9-0.84 12.2 12.38 25.1 29.99 21.3 51.61-9-3.25-19.5-3.94-28.7-7.21m547.2 1166c14.5 13.51 39.3 40.53 32.9 66.71-31.7-30.24-55.7-89.54-93.8-103.87-50.7-19.09-64.9-7.05-93.3-66.9-3.1-10.54-8.9-17.57-15.9-22.24-7.4 4.1-13.7 10.64-17.6 20.91-33.1 57.42-46.3 44.27-98.3 59.29-39.1 11.28-67.8 68.49-101.7 96.12-4.3-26.6 22.5-51.57 38-63.89-9.6 1.83-20.1 0.92-29.5 2.77-0.5-21.95 14.9-37.41 28.8-47.79-2.6 0.48-5.2 0.06-7.9-0.36-2.2-0.36-4.4-0.71-6.4-0.54-10.7-59.05 49-57.81 100.3-56.57 29.1 0.71 55.5 1.41 64.9-8.91-12.6-4.1-16.6-10.51-17.4-25.64 8.1-0.27 23.4-2.23 38.8-2.48 2.9-0.1 6-0.06 9.1 0.07 3 0.11 6.1 0.31 9 0.64 15.4 1.49 30.4 4.64 38.5 5.55-2 15.02-6.5 21.1-19.4 24.19 23.6 30.46 183.5-12.61 159.5 78.36-2-0.34-4.2-0.16-6.4 0.02-2.7 0.22-5.4 0.43-8-0.26 13.1 11.45 27.3 28.09 25 49.92-9.2-2.58-19.8-2.51-29.2-5.1m-967.2-590.78c12.1-0.17 34.6 1.2 42.9 15.47-10.3 0.06-21.9-2.26-33.7-4.58-18.8-3.72-37.8-7.44-51.9-1.36-30.5 13.14-31.6 24.51-69.6 10.18-5.9-3.35-11.4-4-16.5-3.06-1.5 4.95-1.5 10.53 1.1 16.71 9.9 39.42-1.6 39.24-18.1 68.01-12.5 21.6-0.8 59.04-4 85.7-13.3-9.91-12-32.37-10.4-44.38-3.5 4.89-8.5 8.96-11.9 13.76-9.5-9.45-9.3-22.84-7.6-33.35-1.7 2.42-4.8 3.59-6.7 5.72-46.7-33.77 45.8-75.61 45.1-99.2-7.3 3.56-11.9 2.43-18.6-3.92 3.5-3.59 9.3-10.92 16-17.6 1.3-1.3 2.7-2.58 4.1-3.83 1.4-1.26 2.8-2.46 4.2-3.57 7.4-5.87 15.4-10.87 19.4-13.92 5.5 7.47 6.1 12.07 1.7 18.92 9.3 1.36 23.1-11.55 38.2-24.45 22.9-19.59 48.6-39.19 65.6-8.84-2.4 1.6-3.9 4.57-6.5 6.02 10.7-0.51 24 0.81 32.3 11.43-5.2 2.76-9.8 7.28-15.1 10.14m1582-1239c15.5 17.508 41.4 51.339 27.9 75.059-34-39.02-52.2-104.21-97.5-129.56-60.4-33.761-81-26.191-104.6-93.242-1.7-11.23-7.6-19.82-15.6-26.488-10.2 1.82-19.6 6.347-26.7 15.25-53.8 46.359-67.9 29.57-137.1 28.801-51.9-0.59-100.2 46.898-149 63.828 0-27.321 39.3-43.758 61.5-51.239-12.6-1.05-25.7-5.07-38-6.031 3.8-21.66 26.6-32.199 46.5-38.211-6.3-0.558-12.2-4.179-18.1-5.16-1.2-59.129 69.8-43.09 133.2-27.039 39.1 9.891 75.4 19.781 90.1 12.07-15.1-7.761-18.8-15.23-16.7-30.281 10.4 2.18 30.1 4.793 49.8 9.121 3.7 0.781 7.6 1.719 11.5 2.77 3.9 1.019 7.7 2.129 11.3 3.32 19.2 6.012 37.6 13.57 47.7 16.871-5.6 14.117-12.6 18.731-29.6 17.918 23.6 36.813 235.5 42.211 186.3 124.14-5.6-2.098-12.5-1.891-18.2-4.532 14.2 15.114 28.7 35.602 21.3 56.282-11.2-5.25-24.6-8.328-36-13.649m-1371.2 4337.3c15.5 17.51 41.4 51.34 27.9 75.06-34-39.02-52.2-104.21-97.5-129.56-60.4-33.76-81-26.19-104.6-93.23-1.7-11.23-7.6-19.82-15.6-26.49-10.2 1.81-19.6 6.34-26.7 15.24-53.8 46.37-67.9 29.57-137.1 28.8-51.9-0.59-100.2 46.9-149 63.83 0-27.32 39.3-43.77 61.5-51.23-12.6-1.06-25.8-5.07-38-6.05 3.8-21.65 26.6-32.19 46.5-38.2-6.3-0.57-12.2-4.19-18.1-5.15-1.2-59.14 69.8-43.09 133.2-27.05 39.1 9.89 75.4 19.78 90.2 12.07-15.2-7.75-18.9-15.23-16.8-30.27 10.4 2.17 30.1 4.78 49.8 9.11 3.7 0.78 7.6 1.73 11.5 2.77 3.9 1.03 7.7 2.13 11.3 3.32 19.2 6.01 37.6 13.57 47.7 16.87-5.6 14.12-12.6 18.73-29.6 17.92 23.6 36.81 235.5 42.22 186.3 124.14-5.6-2.09-12.5-1.89-18.3-4.52 14.3 15.1 28.8 35.59 21.3 56.28-11.1-5.26-24.5-8.33-35.9-13.66m-3702.9-4175.1c-77.09 160.58-75.49 274.05-81.72 452.95-46.22-22.92-81.2-75.47-70.81-124.37-10.32 11.13-49.96 33.47-61.7 45.74 2.56-36.97 6.44-66.78 11.93-101.25-22.93 14.05-58.7 19.36-81.5 31.89 3.54-27.92 16.21-63.15 32.5-90.84-5.13 0.08-11.86-1.37-19.21-2.82-8.95-1.77-18.83-3.55-27.84-2.53 13.75-40.63 36.04-81.98 55.94-122.04-74.25 67.34-109.62 152.94-171.28 232.65-30.78-58.78-34.07-113.52 6.76-167.98-32.3 13.94-66.42 25.05-101.03 32.28 6.84-39.98 25.95-73.96 60.95-86.98-22.97-5.66-46.81-29.7-69.67-37.8 15.11-41.64 55.39-52.41 93.09-42.22-23.07-25.13-13.46-43.56-13.93-73.98 21.16 6.7 56.81 2.95 79.57 15.16-22.17-32.62-14.71-51.21 1.2-83.9 91.13 33.23 132.38-35.85 194.88-74.042-54.42-94.527-123.08-186.34-170.07-233.54 15.67 15.211 36.46 21.743 57.9 33.942-0.63-24.559-3.11-45.051-14.13-65.512 8.29 9.383 17.44 18.063 24.21 26.52 11.7-29.547 32.6-58.2 45.96-86.797 60.55 67.847 29.54 138.33 116.19 200.25 55.83 39.886 119.55 62.937 158.65 109.13 65.18 76.988 29.89 292.35 123.74 319.87-23.58 44.57-105.32-25.16-180.58-103.78m-288.17-465.19c-6.14-6.93-11.87-14.199-15.49-22.238 6.52 7.531 11.52 14.89 15.49 22.238m4091.4 2095.2c-33.6 125.51-17.1 206.64 2.5 335.72-36.2-10.2-68.4-43.15-67.5-79.6-5.9 9.36-31.3 30.72-38.1 41.1-3.1-26.85-4.4-48.74-5.1-74.19-14.5 13.16-39.4 21.78-54.1 33.84-1.2-20.49 3.1-47.45 11.1-69.49-3.4 0.69-7.9 0.63-12.8 0.58-7-0.08-14.9-0.16-21.7 1.92 4.4-30.98 14.8-63.63 23.7-95.03-44.2 58.29-58 124.42-91.5 189.88-30-38-39.7-76.79-17.8-121.34-21.2 14.35-44.2 26.92-68 36.76-0.5-29.58 8.6-56.51 31.9-70.57-17.2-0.96-37.5-14.98-55-17.71 5.2-31.88 32.6-45.03 61-42.8-19.9-14.91-15.5-29.42-19.9-51.16 6.7 0.82 15-0.01 23.6-0.85 12.1-1.16 25-2.32 35.5 0.99-20.3-20.4-17.5-34.73-10.5-60.31 69.8 11.55 90.1-43.54 129.7-79.35-51.7-60.42-113.3-116.98-153.4-144.49 13.3 8.79 29.1 10.68 46.1 16.52-3.8-17.51-8.3-31.87-18.9-45.04 7.2 5.59 14.9 10.59 20.9 15.74 4.4-22.76 15.5-46.11 21.2-68.43 52.6 40.49 39.9 95.19 110.3 127.9 45.4 21.07 94.2 29.01 128.5 56.84 57.1 46.4 60.8 205.55 131.8 212.63-10.9 35.12-78.9-3.84-143.5-50.06m-269.2-294.62c-5.4-4.15-10.5-8.59-14.1-13.87 5.6 4.52 10.2 9.12 14.1 13.87m-196.2-440.79c-14.7-31.14-57.4-52.37-91.6-46.64 9.8 4.46 17.3 13.75 30.4 17.58 1.8 8.28 2.2 20.89 0 28.95-87.1-53.33-156.7-115.83-260.3-134.81-36.2-6.65-113.3-2.16-139.8-34.75-12.9 57.81-30.6 97.34-92.8 147.72-48.62 39.31-94.05 82.67-124.08 141.64-16.46 32.33-31.56 102.1-73 110.23-56.27-56.52 21.33-111.19 25.47-163.13-11.52 13.02-27.67 16.21-42.08 20.63-8.46-38.99 29.31-62.58 58.32-80.15-8.6 0.74-17.84-0.03-27.08-0.79-8.87-0.74-17.74-1.47-26.03-0.88-1.01-34.56 48.25-44.48 70.19-63.73-66.07-2.2 18.86-56.94 62.83-86.16-28.4 3.6-56.53 7.56-82.59 15.77-42.35 13.34-74 39.11-117.45 48.95-4.19-33.91 11.64-37.57 43.95-58.85-28.26-0.78-56.83-1.94-84.88-3.6-3.95-23.02 41.62-27.29 70.28-30.43-14.04-0.19-27.89-4.69-42-5.83 7.95-13.48 34.98-17.2 58.87-14.36-19.3-4.75-45.16-17.01-34.52-31.14 14.12-18.73 136.83-7.19 163.21-3.33 1.97 0.29 3.89 0.62 5.84 0.93 0.99-27.86 13.97-54.45 31.54-68.55 39.49-31.71 120.21-40.77 170.71-40.77 60.4 0 92.2 11.1 143.2 33.88 51.7 23.07 76.9 37.3 123.3-1.89 24.7 78.4-77 103.15-131.3 103.09-6.1 0-12.4-0.1-18.7-0.24 140.2 39.03 334.7 130.8 330.1 200.66m747.6 94.68c-12.7-0.4-36.4 11.17-61.6 22.73-36 16.58-75 33.16-88.9 14.48-32.7-43.63 106.4-107.11 137.5-120.09-35.6 1.27-123.4 34.84-95.5-23.69 13.6-28.64 123.4-68.57 157.7-76.22-29.1-3.24-53.9-18.29-63.2-46.5 66.5-39.03 141.2-78.15 217.1-54.53-97.8-130.68 84-63.67 140.2-61.91 33.5-136.28 94.2-76.48 170-2.01 11.7-26.8 30.7-49.13 57.1-56.9 2.6 5.84 6.6 10.36 12.1 13.58 5.5-3.14 11.4-4.74 17.7-4.79 17.6 21.56 33.2 44.75 46.3 69.62 60.3-28.68 82.8-64.69 123.7 1.94 4.7 7.65 7.9 16.19 10 25.35 29-17.38 58.5-31.68 87.2-41.67-75.5-118.45-112.7-269.42-5.4-302.47 7.8 20.78 24.8 40.19 34.1 60.42 85.7-62.88 62-68.71 128.7 23.9 31.8-17.43 66.8-34.8 102.1-37.05 20.2 31.11 12.2 66.39 10.8 100.73 79.3-37.1 126.3 30.65 42.5 77.82 46.5 21.66 129.9 15.85 66.4 85.86-62.5 68.85-213.2 47.12-290.9 96.29-1.2-1.1-2.5-2.31-3.7-3.43-23 29.66-50 60.57-52.8 82.3-22.8 125.09-102.1 248.17-136.8 369.79-29.9 104.71-146.3 189.48-238.4 90.89 94.3-6.85 101.6-60.47 70.6-138.64-4.4-11.05-8.7-21.78-12.7-32.32-181.2-48.31-375.1 119.78-522.1 193.28-5.8-10.07-7.7-14.35-11.3-24.98 43-44.57 95.8-78.58 144-118.02-20 10.65-135.6 87.94-117.9 13.39 9.7-41.32 119.7-78.45 150.8-97.45-19.9-1.48-35-14.83-51.3-19.25 56.5-33.6 266.4-96.43 380.7-35.92-3.1-16.61-4.5-33.14-3.8-49.89-102.5-62.51-312-31.01-396.5-3.39-114.8 37.58-215.3 113.67-325.3 162.23-8.6-54.89 126.1-126.26 170.8-153.48m-2108.3-1193.8c-124.79-6.059-250.72-42.34-376.17-35.91-92.22 4.73-307.23 52.39-383.29 151.29 6.88 16 11.68 32.57 14.94 49.8 88.26-101.36 315.29-118.75 382.65-107.25-14.17 10.372-23.82 28.962-42.58 37.832 37.27 6.8 157.82 1.77 182.73 38.22 44.93 65.74-96.01 33.89-119.41 31.04 61.49 20.25 125.4 33.54 183.79 60.71 0.43 11.67 0.15 16.54-1.7 28.47-170.01-16.44-420.9-107.09-578.58 7.4 0 11.74-0.1 23.73-0.23 36.08-0.91 87.41 26.13 136.73 120.15 108.16-52.52 130.02-197.08 91.24-265.17 0.83-79.07-105.03-201.94-194.81-270.79-307.65-10.82-20.03-48.56-39.931-81.85-60.158-0.81 1.578-1.59 3.207-2.4 4.75-41.51-8.281-91.72 2.277-142.28 12.828-63.59 13.28-127.74 26.56-175.83 2.352-87.77-44.203-4.67-69.711 32.41-108.1-98.95-14.461-78.66-97.719 12.14-91.34-14.15-32.8-35.13-64.031-27.14-101.75 35.1-11 75.53-7.211 112.87-2.172 30.13-114.74 9.36-100.25 115.98-71.257 1.45-23.082 10.68-48.262 10.44-71.301 116.42-7.988 136.78 152.32 107.71 295.42 31.54-1.012 65.54 1.828 100.14 7.879-1.41-9.672-1.41-19.172 0.29-28.36 14.76-79.883 49.99-53.332 119.21-48.019 3.47-29.043 9.93-57.36 18.97-84.852 6.13-2.301 12.45-2.949 18.94-1.961 4.12-5.148 6.35-11.051 6.7-17.699 28.46-2.309 55.28 12.262 76.57 33.898 45.8-100.56 82.33-181.21 165.73-61.539 53.8-22.648 205.2-155.54 159.09 7.743 64.83-51.262 151.9-41.18 231-28.161 1.49 30.84-16.97 54.707-44.01 68.719 36.18-5.41 157.55-7.64 181.46 15.051 48.89 46.379-48.79 46.578-83.79 58.641 34.98 0.988 193.61 10.648 178.24 65.148-6.89 24.422-54.73 21.609-97.4 18.801-26.56-1.75-51.13-3.5-62.57 1.32 53.57 9.699 210.91 28.641 223.04 85.098m1908.4 2525.2c16.4-40.02 127.9-83.48 165.5-93.57-21.9 1.46-24.4-8.4-43.7-14.53-2-3.84-2.7-7.93-1.9-12.27 41.9-25.76 121.5-29.51 172.4-26.21-26.8-3.75-52.6-11.25-77.1-21.74-1.9-3.93-2.5-8.08-1.7-12.43 40.5-16.61 101-15.6 147.5-20.74-9.4-11.86-11.9-39.54-18.7-52.97 40-16.54 110.8-4.13 145.1 19.97-2.8-13.11 4.5-32.2 2.4-45.77 90.6-2.8 199.9-5.8 268.6 65.23 51.8-16.56 108.1-22.28 160.3-18.9 8.6 0.55 21.4 2.14 36.3 4.83-27-52.79-29.9-97.05-31.3-142.82-1.5-49.09 23.5-152.21 69.9-59.55 42.2-52.36 107.4 5.67 111.6 56.63 84.2-40.51 103.7-47.56 106.9 53.06 19.8-1.1 102.7-3.97 116.2 13.87 29.1 38.18-22.6 55.66-35.6 86.17 25.6 1.89 52.5 0.59 78.3 2.02 9 57.16-54.1 67.19-99.7 67.57 48.7 15.58 210.8 50.35 94.4 89.21-78.6 26.2-196.7-8.91-285-45.37-22.4 21.71-64.4 23.7-94.1 45.3 13.9 7.72 21.6 19.47 19.8 35.5 109.1 5.18 113 6.86 118.7 107.03 103.4-20.8 21.6 91.07 14.6 128.01 133.4-14.43 95.6 79.3 79.5 159.76 112.6 22.66 94.1 73.38-1 99.71 41.2 19.11 97.7 54.68 86.2 107.71-6.4-1.43-14.4-0.25-22.4 0.93-8.3 1.23-16.7 2.45-23.4 0.74 13.2 65.85 44.1 123.55 20.2 193.47-30.9-16.46-57.3-47.84-67.5-82.31-27 58.94-74.1 112.51-75 181.08-19.9-133.72-34.3-267.54-117.4-380.02-78.4-105.99-205.4-207.92-262.7-324.67-59.5 15.55-70.8 86.59-120.1 110.86-51.9 25.63-172.5 1.05-160.7-74.76 3.5 7.43 46.1 29.54 67.2 11.31 18.4-15.85 5.6-88.3 6.4-111.23 1-31.17 3.7-60.4 9-88.12-107.3-90.48-347.6-72.69-456.8-21.2-25.2 11.91-132.6 85.52-101.2 9.21m699.3-2119.6c-91.6 16.9-208.8-115.4-291-149.38-129.9-53.7-258.6-66.58-392.2-70.22-145.1-3.95-294.5-2.58-440.7-14.33-70-5.62-163.4-20.66-238.7-6.83-6.4 52-14.5 103.38-8.5 156.56 8.5-0.91 18.4 0.41 28.5 1.74 11.7 1.56 23.6 3.11 33.2 1.03-48.2 43.14-99.4 120.28-177.6 61.85-32.1-23.93-34.5-66.21-57-96.69-25.4-34.36-58.9-52.41-93.4-65.54-4.1 12.17-10.5 24.09-19.8 35.46-85.5 16.51-172.72 102.18-239.31 156.45-113.68 92.65-237.41 176.3-354.62 261.91-107.91 78.84-206.59 162.52-283.03 280.44-48.41 74.67-69.84 250.13-154.8 288.19-101.76-104.42 85.68-404.17 139.53-487.52 56.52-87.48 103.52-159.45 187.23-214.59-125.42-17.5-11.51-97.74 55.28-103.92-84.17-116.74 31.02-96.25 100.74-134.15-100.15-97.78 44.44-96.59 98.94-117.48-18.7-17.26-42.17-68.9-21.74-96.65 16.83-22.86 72.36-20.32 116.8-17.78 18.48 1.06 35.04 2.11 46.1 1.34-75.91-77.08 80.19-75.4 162.78-62.51-9.6-34.511-16.8-68.859-22.26-99.91-116.11 38.422-329.93 19.11-448.04 12.422-9.48-57.933 92.26-65.902 133.07-63.941-45.72-14.86-106.72-58.153-83.04-115.78 42.87-2.11 86.43 0.199 129.01-2.598-127.22-45.543-38.81-142.85 74.23-97.02-37.69-31.722-25.82-92.922-23.86-138.34 48.21-18.899 105.94-7.789 126.38 43.089-13.75-49.816-34.21-106.2 6.85-140.29 43.1 20.45 71.92 65.59 81.53 111.96 8.27-23.949 15.63-126.91 53.03-135.09 48.1-10.488 55.1 83.012 73.3 109.17 27.8-35.398 68.6-90.007 115.8-81.699 8.9 28.992 12.1 60.781 9.9 91.371 24 0.442 42.6-11.519 61.1-23.48 23.2-15.078 46.3-30.168 79.6-20.371 2 37.722 0.5 76.023 2.5 113.82 33.7-36.82 91.4-54.039 140.2-42.57 16.5 89.691-87.8 222.88-170.8 279.9 1.1 1.469 2.3 2.91 3.4 4.41 15.9 23.02 30.6 44.059 43.6 64.528 63.8-56.969 175.7-130.7 158.1-30.457 32.5-19.243 105.4-92.051 143.4-78.942 32.6 11.25 42.6 67.09 37 91.91 56.7-13.75 175.1-96.789 148.1 40.551 78.9-8.371 162.2-90.621 159.1 53.258 58.5-32.82 197.9-31.418 104.5 54.172 100.3-2.11 179.8 30.461 276 70.399 91.6 38.05 416.1 178.43 391.6 322.15m-19.9 2765.9c-54-22.4-98.6-40.67-154.8-39.48 52.3-48.01-25.8-48.8-58.6-30.39 1.7-80.7-45-34.56-89.2-29.87 15.1-77.03-51.3-30.46-83.1-22.74 3.1-13.92-2.5-45.24-20.8-51.55-21.3-7.36-62.2 33.48-80.4 44.27 9.9-56.22-52.9-14.87-88.7 17.09-7.3-11.49-15.5-23.29-24.4-36.2l-1.9-2.47c46.5-31.98 105-106.68 95.8-156.98-27.4-6.44-59.8 3.22-78.7 23.88-1.1-21.21-0.2-42.69-1.4-63.85-18.6-5.49-31.6 2.97-44.6 11.43-10.4 6.71-20.8 13.42-34.3 13.17 1.3-17.16-0.5-34.99-5.6-51.24-26.4-4.67-49.3 25.95-64.9 45.81-10.2-14.66-14.1-67.11-41.1-61.22-21 4.58-25.1 62.33-29.7 75.76-5.4-26.01-21.6-51.32-45.8-62.79-23 19.12-11.5 50.74-3.8 78.69-11.5-28.54-43.9-34.77-70.9-24.18-1.1 25.48-7.7 59.81 13.4 77.6-63.4-25.71-113 28.87-41.6 54.41-23.9 1.57-48.4 0.27-72.4 1.45-13.3 32.33 20.9 56.6 46.6 64.94-22.9-1.1-80 3.38-74.7 35.86 66.3 3.76 186.2 14.58 251.3-6.96 3.1 17.41 7.1 36.68 12.5 56.03-46.3-7.22-133.9-8.17-91.3 35.07-6.2 0.43-15.5-0.16-25.8-0.75-25-1.43-56.1-2.86-65.5 9.97-11.5 15.56 1.7 44.53 12.1 54.2-30.5 11.71-111.6 11.05-55.4 65.89-39.1 21.26-103.8 9.77-56.5 75.24-37.5 3.47-101.4 48.47-31.1 58.29-46.9 30.92-73.3 71.29-105 120.35-30.2 46.75-135.3 214.87-78.2 273.43 47.6-21.35 59.7-119.75 86.8-161.63 42.9-66.14 98.2-113.08 158.8-157.29 65.7-48.02 135.1-94.93 198.8-146.9 37.4-30.43 86.3-78.48 134.3-87.74 5.2-6.38 8.8-13.06 11.1-19.89 19.3 7.36 38.1 17.48 52.4 36.76 12.6 17.09 13.9 40.81 31.9 54.23 43.9 32.77 72.6-10.5 99.6-34.69-5.4 1.17-12 0.29-18.6-0.58-5.6-0.74-11.2-1.48-16-0.97-3.4-29.83 1.2-58.65 4.8-87.82 42.2-7.75 94.6 0.68 133.9 3.84 82 6.59 165.7 5.82 247.1 8.04 74.9 2.04 147.1 9.27 220 39.37 46.1 19.07 111.9 93.27 163.2 83.79 13.8-80.61-168.2-159.34-219.6-180.68"/>
      </clipPath>
   </defs>
   <g transform="matrix(1.3333 0 0 -1.3333 -743.23 668.27)">
      <g transform="scale(.1)">
         <g clip-path="url(#clipPath22)">
            <g clip-path="url(#clipPath28)">
               <path d="m8409.4 2863.5 29.4 13.41 38.55-88.56-1.43-0.79-66.52 75.94" fill="#4368b5"/>
               <path d="m7764.1 2396.3-58.4 41.2-90.24 63.66 436.55 199.25 114.45-82.92-402.36-221.19" fill="#aabf8b"/>
               <path d="m8166.4 2617.4-114.45 82.92 357.39 163.12 66.52-75.94-309.46-170.1" fill="#697fe5"/>
               <path d="m8608.4 2487.2 72.98-167.62-93.63-7.47-293.14 212.4 184.81 258.93-3.55 4.06 1.43 0.79 131.1-301.09" fill="#cc2151"/>
               <path d="m7615.4 2501.1 67.38 466.74 369.17-267.49z" fill="#a3cbb9"/>
               <path d="m7099.5 2265.6-12.61 0.06-130.34 175.01 485.61 179.83-201.17-290.32-141.49-64.58" fill="#f2d263"/>
               <path d="m8116.2 2274.5 471.61 37.64 97.43-70.59-466.73-165.87-19.84 13.99-82.47 184.83" fill="#e27f92"/>
               <path d="m7241 2330.2 201.17 290.32 2.6 0.97-1.63 0.45 0.33 0.47 171.96-121.32-374.43-170.89" fill="#dac58e"/>
               <path d="m7615.4 2501.1-171.96 121.32 239.34 345.42-67.38-466.74" fill="#82b5bd"/>
               <path d="m7442.2 2620.6 0.97 1.42 1.63-0.45z" fill="#b9b9b9"/>
               <path d="m8969.6 2342.6" fill="#b9b9b9"/>
               <path d="m9325.5 1777.6-482.05 349.28 394.32-111.98 149.99-183.29-62.26-54.01" fill="#cc2151"/>
               <path d="m8969.6 2342.6 268.15-327.68-394.32 111.98 126.17 215.7" fill="#b84970"/>
               <path d="m7090.2 2261.4-3.24 4.34 12.61-0.06z" fill="#b9b9b9"/>
               <path d="m8733.8 2323.8 117.44 385.53 289.83-305.76-171.49-60.95-235.78-18.82" fill="#b2154a"/>
               <path d="m8969.6 2342.6" fill="#b9b9b9"/>
               <path d="m8729.3 2209.6 69.33-159.23-158.98-271.81-421.19 297.14 466.73 165.87 44.11-31.97" fill="#dd7465"/>
               <path d="m8711.4 2250.8 0.27 0.1 257.97 91.68-126.17-215.7-114.11 82.67-17.96 41.25" fill="#df687b"/>
               <path d="m8843.4 2126.9-44.78-76.56-69.33 159.23z" fill="#dd527b"/>
               <path d="m9141.1 2403.6-289.83 305.76 104.1 341.77 185.73-647.53" fill="#4c3f76"/>
               <path d="m8955.4 3051.1" fill="#b9b9b9"/>
               <path d="m8955.4 3051.1 340.95-271.5-155.22-376.03-185.73 647.53" fill="#6f3edf"/>
               <path d="m9141.1 2403.6 309.11-167.14-480.6 106.19z" fill="#69232f"/>
               <g fill="#b9b9b9">
                  <path d="m8955.4 3051.1"/>
                  <path d="m9141.1 2403.6"/>
                  <path d="m9141.1 2403.6"/>
               </g>
               <path d="m8608.4 2487.2-131.1 301.09 478.03 262.77-104.1-341.77-242.83-222.09" fill="#8828c3"/>
               <path d="m8729.3 2209.6-44.11 31.97 26.15 9.28z" fill="#df687b"/>
               <path d="m8198.6 2089.7-243.75 171.96 161.28 12.87z" fill="#e3b65d"/>
               <path d="m6993.1 1972.5 150.45 217.13 71.05-95.38z" fill="#ecb72b"/>
               <path d="m8969.6 2342.6-257.97-91.68 22.19 72.86 235.78 18.82" fill="#cc2151"/>
               <path d="m8608.4 2487.2 242.83 222.09-117.44-385.53-52.41-4.18-72.98 167.62" fill="#b84970"/>
               <path d="m8733.8 2323.8-22.19-72.86-0.27-0.1-29.95 68.78 52.41 4.18" fill="#dd527b"/>
               <path d="m9538.6 2874.2-361.12 298.97 362.22 199.1z" fill="#42335a"/>
               <path d="m8711.4 2250.8-26.15-9.28-97.43 70.59 93.63 7.47 29.95-68.78" fill="#cc2151"/>
               <g fill="#b9b9b9">
                  <path d="m7145.8 3357"/>
                  <path d="m7435.6 1797.5"/>
                  <path d="m6774.5 3094.4 8.66-6.11-16.61-12.31z"/>
                  <path d="m8955.4 3051.1"/>
               </g>
               <path d="m7764.1 2396.3 190.81-134.61-159.04 0.74-2.98 7.13-28.79 126.74" fill="#eaa961"/>
               <path d="m7196 2265.2-52.38-75.58-53.43 71.75 9.37 4.28 96.44-0.45" fill="#f3d67a"/>
               <path d="m7795.8 2262.4-8.34 0.04 5.36 7.09z" fill="#b9b9b9"/>
               <path d="m7764.1 2396.3 28.79-126.74-5.36-7.09-264.65 1.24 241.22 132.59" fill="#e19862"/>
               <path d="m7241 2330.2 374.43 170.89 148.64-104.86-241.22-132.59-326.9 1.53 45.05 65.03" fill="#eab477"/>
               <path d="m7522.9 2263.7-308.23-169.43-71.05 95.38 52.38 75.58 326.9-1.53" fill="#eec144"/>
               <path d="m8166.4 2617.4 128.2-92.89-178.47-250.04-161.28-12.87-190.81 134.61 402.36 221.19" fill="#78a688"/>
               <path d="m8475.9 2787.6 3.55-4.06-184.81-258.93-128.2 92.89 309.46 170.1" fill="#b231dc"/>
               <path d="m7705.7 2437.5 58.4-41.2-58.4 41.2" fill="#b9b9b9"/>
               <path d="m8294.6 2524.6 293.14-212.4-471.61-37.64z" fill="#dc3b36"/>
               <path d="m7615.4 2501.1 90.24-63.66-90.24 63.66" fill="#b9b9b9"/>
               <path d="m7099.5 2265.6 141.49 64.58-45.05-65.03z" fill="#edbf74"/>
               <path d="m9535.8 1608.9-402.76 1.89 192.45 166.9 210.34-152.4-0.03-16.39" fill="#8d3341"/>
               <path d="m6750.2 1621.9 235.88 340.43 449.55-164.84-496.6-176.48-188.83 0.89" fill="#e09d30"/>
               <path d="m7435.6 1797.5 771.1 274.03 3.66-8.22-288.94-443.95-485.82 178.14" fill="#dd7465"/>
               <path d="m7929.6 1616.4-8.13 2.98 288.94 443.95 200.41-449.18-481.22 2.25" fill="#da544b"/>
               <path d="m6374.4 1623.7 0.02 8.73 257.15 141.35 347.67 191.11 6.84-2.52-235.88-340.43-375.8 1.76" fill="#de5c1c"/>
               <path d="m6939 1621 496.6 176.48 493.95-181.12z" fill="#e7994f"/>
               <path d="m8218.5 2075.7-11.73-4.17-8.11 18.16z" fill="#b9b9b9"/>
               <path d="m6375.1 1935 0.51 234.35 6.26 14.53 298.62-109.5-305.39-139.38" fill="#df662c"/>
               <path d="m6375.1 1935 305.39 139.38-48.91-300.65-257.15-141.35 0.67 302.62" fill="#be541b"/>
               <path d="m6979.3 1964.9-347.67-191.11 48.91 300.65z" fill="#e09d30"/>
               <path d="m8410.8 1614.1-200.41 449.18-3.66 8.22 11.73 4.17 421.19-297.14-96.55-165.05-132.3 0.62" fill="#df687b"/>
               <path d="m9535.8 1625.2-210.34 152.4 62.26 54.01 148.14-181.03-0.06-25.38" fill="#9c2339"/>
               <path d="m9535.9 1650.6-148.14 181.03 148.82 129.07z" fill="#69232f"/>
               <path d="m8989.8 1611.4-89.22 204.91 424.93-38.68-192.45-166.9-143.26 0.67" fill="#bc134c"/>
               <path d="m8900.6 1816.3-101.9 234.04 44.78 76.56 482.05-349.28-424.93 38.68" fill="#da3b63"/>
               <path d="m6376.4 2535.5 134.99-51.26-129.53-300.37-6.22 2.28 0.76 349.35" fill="#d88247"/>
               <path d="m9536.6 1960.7-148.82-129.07-418.14 510.97 480.61-106.19 86.85-46.96-0.5-228.75" fill="#ad002f"/>
               <path d="m8543.1 1613.5 96.55 165.05 236.16-166.61z" fill="#da544b"/>
               <path d="m8875.8 1612-236.16 166.61 158.98 271.81 101.9-234.04 89.22-204.91-113.94 0.53" fill="#dd527b"/>
               <path d="m7963.4 3372.8 13.84 19.96 237.46-1.11 50.87-116.83-302.17 97.98" fill="#25346b"/>
               <path d="m7900.7 3393.1 76.53-0.36-13.84-19.96z" fill="#5a9fc7"/>
               <path d="m8499.4 3363.4c-53.45-15.6-101.56-42.92-159.95-59.17-27.48-8.14-48.1-21.81-73.95-29.48" fill="#b9b9b9"/>
               <path d="m8265.5 3274.8-50.87 116.83 354.73-1.66z" fill="#333873"/>
               <path d="m8948.8 3109.7-72.32-33.01-610.94 198.1 303.86 115.17 348.17-1.63 31.23-278.63" fill="#324988"/>
               <path d="m9539.6 3372.3-362.22-199.1-31.81 26.34 394.04 179.85-0.01-7.09" fill="#533b6e"/>
               <path d="m7963.4 3372.8-280.55-404.9-198.87 427.17 416.73-1.95 62.69-20.32" fill="#4368b5"/>
               <path d="m8948.8 3109.7-31.23 278.63 228.05-188.8z" fill="#31407b"/>
               <path d="m9539.7 3379.4-394.04-179.85-228.05 188.8 622.11-2.91-0.02-6.04" fill="#382164"/>
               <path d="m7682.8 2967.9-178.32 129.21-358.75 259.93 53.13 39.37 285.07-1.34 198.87-427.17" fill="#79a789"/>
               <path d="m6378.3 3400.2 527-2.47-130.81-303.36-396.24 279.55 0.05 26.28" fill="#dd7465"/>
               <path d="m6378.3 3373.9 396.24-279.55-7.95-18.42-182.43-135.2-206.2 276.85 0.34 156.32" fill="#e27f92"/>
               <path d="m6377 2787.2 0.95 430.38 206.2-276.85z" fill="#e9a75d"/>
               <path d="m6783.2 3088.3-8.66 6.11 130.81 303.36 185.4-0.86 55.04-39.88-362.59-268.73" fill="#eab477"/>
               <path d="m6511.4 2484.3-134.99 51.26 0.55 251.7 207.15 153.53 77.38-103.89 1.23-1.66-151.32-350.94" fill="#e9a75d"/>
               <path d="m7145.8 3357-55.04 39.88 108.17-0.51-53.13-39.37" fill="#6a9168"/>
               <path d="m6375.6 2169.4 0.04 16.81 6.22-2.28z" fill="#b44718"/>
               <path d="m6956.6 2441.9 130.34-176.17-575.5 220.01 151.33 353.28 293.83-397.12" fill="#e9a75d"/>
               <path d="m7086.9 2265.7 3.24-4.34-409.65-186.97-298.62 109.5 129.53 300.37 575.5-218.56" fill="#e48b24"/>
               <path d="m7145.8 3357 358.75-259.93-341.43-276.81z" fill="#a7c28c"/>
               <path d="m6662.7 2835.2-1.23 1.66 1.75-0.48z" fill="#b9b9b9"/>
               <path d="m7443.2 2622-779.9 214.42 103.3 239.57 16.61 12.31 660.32-465.83-0.33-0.47" fill="#f1d365"/>
               <path d="m6661.5 2836.9-77.38 103.89 182.43 135.2-103.3-239.57-1.75 0.48" fill="#edbd44"/>
               <path d="m9537.1 2189.5-86.86 46.96 86.92-19.2z" fill="#69232f"/>
               <path d="m7443.2 2622-0.97-1.42-485.61-179.83-293.84 394.49 0.52 1.18 779.9-214.42" fill="#f1cc51"/>
               <path d="m7435.6 1797.5" fill="#b9b9b9"/>
               <path d="m7435.6 1797.5" fill="#b9b9b9"/>
               <path d="m7435.6 1797.5 351.86 464.93 8.34-0.04 122.51-293.34-482.71-171.55" fill="#eeca70"/>
               <path d="m7918.4 1969-122.51 293.34 159.04-0.74 243.75-171.96 8.11-18.16-288.39-102.48" fill="#de917b"/>
               <path d="m6986.1 1962.3-6.84 2.52 13.87 7.63z" fill="#b9b9b9"/>
               <path d="m7522.9 2263.7 264.65-1.24-351.86-464.93-221.02 296.74 308.23 169.43" fill="#f5dc4f"/>
               <path d="m7214.6 2094.2 221.02-296.74-449.55 164.84 7.03 10.15 221.5 121.75" fill="#e8b845"/>
               <path d="m7143.6 2189.6-150.45-217.13-13.87-7.63-298.76 109.54 409.65 186.97 53.43-71.75" fill="#efc34b"/>
               <path d="m8955.4 3051.1-6.56 58.58 196.82 89.83 31.81-26.34-222.07-122.07" fill="#56369e"/>
               <path d="m8955.4 3051.1-478.03-262.77-38.55 88.56 437.7 199.78 78.88-25.57" fill="#56369e"/>
               <path d="m8876.5 3076.7 72.32 33.01 6.56-58.58z" fill="#42335a"/>
               <path d="m9538.5 2862-583.17 189.09 222.07 122.07 361.12-298.97-0.02-12.19" fill="#4c3f76"/>
               <path d="m9537.1 2217.2-86.92 19.2-309.11 167.14 396.74 140.99-0.71-327.33" fill="#5d1e3c"/>
               <path d="m9537.8 2544.6-396.74-140.99 155.22 376.03 241.62-192.41-0.1-42.63" fill="#533b6e"/>
               <path d="m9537.9 2587.2-241.62 192.41-340.95 271.5 583.17-189.09-0.6-274.82" fill="#56369e"/>
               <path d="m7682.8 2967.9" fill="#b9b9b9"/>
               <path d="m7682.8 2967.9 369.82 25.24-0.65-292.73z" fill="#8fc3b6"/>
               <path d="m8409.4 2863.5-357.39-163.12 0.65 292.73z" fill="#7ea1b2"/>
               <path d="m8409.4 2863.5-356.74 129.61 229.52 15.66z" fill="#5a9fc7"/>
               <path d="m7682.8 2967.9" fill="#b9b9b9"/>
               <path d="m8265.5 3274.8 610.94-198.1-437.7-199.78z" fill="#6f3edf"/>
               <path d="m7163.1 2820.3 2.17-1.53-2.07-1.7z" fill="#b9b9b9"/>
               <path d="m7145.8 3357 17.32-536.74-379.91 268.01 362.59 268.73" fill="#dbd693"/>
               <path d="m7443.5 2622.4-280.41 197.82 341.43 276.81 178.32-129.21-239.34-345.42" fill="#c9cb82"/>
               <path d="m8409.4 2863.5-127.22 145.27-318.79 364 302.17-97.98 173.24-397.88-29.4-13.41" fill="#31407b"/>
               <path d="m7682.8 2967.9 280.55 404.9 318.79-364z" fill="#4d88b6"/>
               <path d="m10664 2873.4-29.5 13.57-38.3-88.38 1.5-0.79 66.3 75.6" fill="#4368b5"/>
               <path d="m11310 2403 58.3 40.89 90.1 63.22-437.2 201.45-114.2-82.35 403-223.21" fill="#aabf8b"/>
               <path d="m10908 2626.2 114.2 82.35-357.8 164.92-66.3-75.6 309.9-171.67" fill="#697fe5"/>
               <path d="m10466 2498.2-72.5-167.26 93.7-7.94 292.5 210.92-185.6 259.87 3.6 4.04-1.5 0.79-130.2-300.42" fill="#cc2151"/>
               <path d="m11459 2507.1-68.8 467.08-368.4-265.63 437.2-201.45" fill="#a3cbb9"/>
               <path d="m11976 2269 12.6-0.01 129.8 174.34-486.1 182.3 202-291.34 141.7-65.29" fill="#f2d263"/>
               <path d="m10959 2283-471.7 40.03-97.2-70.11 467.2-168.22 19.8 13.89 81.9 184.41" fill="#e27f92"/>
               <path d="m11834 2334.3-202 291.34-2.6 0.98 1.6 0.44-0.3 0.47-171.6-120.44 374.9-172.79" fill="#dac58e"/>
               <path d="m11459 2507.1 171.6 120.44-240.4 346.64 68.8-467.08" fill="#82b5bd"/>
               <path d="m11632 2625.6-1 1.42-1.6-0.44z" fill="#b9b9b9"/>
               <path d="m10105 2355.4" fill="#b9b9b9"/>
               <path d="m9751 1792.2 481.05 346.85-394.01-109.99-149.46-182.53 62.42-54.33" fill="#cc2151"/>
               <path d="m10105 2355.4-267.21-326.32 394.01 109.99-126.8 216.33" fill="#b84970"/>
               <path d="m11985 2264.7 3.2 4.32-12.6 0.01 9.4-4.33" fill="#b9b9b9"/>
               <path d="m10341 2335.4-118.6 386.12-288.91-304.3 171.71-61.81 235.8-20.01" fill="#b2154a"/>
               <path d="m10105 2355.4" fill="#b9b9b9"/>
               <path d="m10346 2221.2-68.8-158.89 159.8-272.62 420.3 295.02-467.2 168.22-44.1-31.73" fill="#dd7465"/>
               <path d="m10364 2262.3-0.3 0.1-258.2 92.98 126.8-216.34 113.8 82.1 17.9 41.16" fill="#df687b"/>
               <path d="m10232 2139.1 45-76.79 68.8 158.89z" fill="#dd527b"/>
               <path d="m9933.5 2417.2 288.91 304.3-105.1 342.3-183.81-646.6" fill="#4c3f76"/>
               <path d="m10117 3063.8" fill="#b9b9b9"/>
               <path d="m10117 3063.8-340.11-269.78 156.3-376.82 183.81 646.6" fill="#6f3edf"/>
               <path d="m9933.5 2417.2-308.61-165.57 480.32 103.76z" fill="#69232f"/>
               <g fill="#b9b9b9">
                  <path d="m10117 3063.8"/>
                  <path d="m9933.5 2417.2"/>
                  <path d="m9933.5 2417.2"/>
               </g>
               <path d="m10466 2498.2 130.2 300.42-478.8 265.19 105.1-342.3 243.5-223.31" fill="#8828c3"/>
               <path d="m10346 2221.2 44.1 31.74-26.2 9.42z" fill="#df687b"/>
               <path d="m10877 2098.6 243.2 170.73-161.3 13.68z" fill="#e3b65d"/>
               <path d="m12083 1975.3-151.1 217.9-70.7-95.03 221.8-122.87" fill="#ecb72b"/>
               <path d="m10105 2355.4 258.2-92.98-22.4 72.97-235.8 20.01" fill="#cc2151"/>
               <path d="m10466 2498.2-243.5 223.31 118.6-386.12 52.4-4.45 72.5 167.26" fill="#b84970"/>
               <path d="m10341 2335.4 22.4-72.97 0.3-0.1 29.7 68.62-52.4 4.45" fill="#dd527b"/>
               <path d="m9534.6 2889.9 360.25 297.15-362.8 200.93z" fill="#42335a"/>
               <path d="m10364 2262.3 26.2-9.42 97.2 70.1-93.7 7.94-29.7-68.62" fill="#cc2151"/>
               <path d="m12298 3096.1-8.7-6.06 16.7-12.4-8 18.46" fill="#b9b9b9"/>
               <path d="m10117 3063.8" fill="#b9b9b9"/>
               <path d="m11310 2403-190.4-133.66 159.1-0.06 2.9 7.11 28.4 126.61" fill="#eaa961"/>
               <path d="m11879 2269 52.5-75.84 53.3 71.48-9.4 4.33-96.4 0.03" fill="#f3d67a"/>
               <path d="m11279 2269.2 8.3-0.01-5.4 7.12z" fill="#b9b9b9"/>
               <path d="m11310 2403-28.4-126.61 5.4-7.12 264.7-0.08-241.7 133.81" fill="#e19862"/>
               <path d="m11834 2334.3-374.9 172.79-90.1-63.22-58.3-40.89 241.7-133.81 326.9-0.13-45.3 65.26" fill="#eab477"/>
               <path d="m11552 2269.2 308.7-171 70.7 95.03-52.5 75.84-326.9 0.13" fill="#eec144"/>
               <path d="m10908 2626.2-127.9-92.24 179.2-250.95 161.3-13.68 190.4 133.66-403 223.21" fill="#78a688"/>
               <path d="m10598 2797.8-3.6-4.04 185.6-259.87 127.9 92.24-309.9 171.67" fill="#b231dc"/>
               <path d="m11369 2443.8-58.3-40.89 58.3 40.89" fill="#b9b9b9"/>
               <path d="m10780 2533.9-292.5-210.92 471.7-40.03-179.2 250.95" fill="#dc3b36"/>
               <path d="m11459 2507.1-90.1-63.22 90.1 63.22" fill="#b9b9b9"/>
               <path d="m11976 2269-141.7 65.29 45.3-65.26 96.4-0.03" fill="#edbf74"/>
               <path d="m9541.1 1624.5 402.74-0.15-192.93 167.88-209.89-151.34 0.08-16.39" fill="#8d3341"/>
               <path d="m12327 1623.5-236.9 341.63-449.1-162.57 497.2-178.99 188.8-0.07" fill="#e09d30"/>
               <path d="m11641 1802.5-771.9 277.92-3.6-8.2 290.2-445.41 485.3 175.69" fill="#dd7465"/>
               <path d="m11147 1623.9 8.1 2.94-290.2 445.41-199.1-448.17 481.2-0.18" fill="#da544b"/>
               <path d="m12702 1623.3-0.1 8.73-257.5 142.64-348.3 192.86-6.8-2.47 236.9-341.63 375.8-0.13" fill="#de5c1c"/>
               <path d="m12138 1623.5-497.2 178.99-493.4-178.63 990.6-0.36" fill="#e7994f"/>
               <path d="m10857 2084.7 11.7-4.23 8.1 18.12z" fill="#b9b9b9"/>
               <path d="m12701 1934.7-1.2 234.36-6.3 14.56-298.3-107.99 305.8-140.93" fill="#df662c"/>
               <path d="m12701 1934.7-305.8 140.93 49.8-300.91 257.5-142.64-1.5 302.62" fill="#be541b"/>
               <path d="m12097 1967.6 348.3-192.86-49.8 300.91-298.5-108.05" fill="#e09d30"/>
               <path d="m10666 1624.1 199.1 448.17 3.6 8.2-11.7 4.23-420.3-295.02 97-165.53 132.3-0.05" fill="#df687b"/>
               <path d="m9541.1 1640.9 209.9 151.35-62.43 54.33-147.6-180.29 0.13-25.39" fill="#9c2339"/>
               <path d="m9540.9 1666.3 147.6 180.29-149.2 129.81z" fill="#69232f"/>
               <path d="m10087 1624.3 88.6 204.48-424.85-36.55 192.93-167.88 143.32-0.05" fill="#bc134c"/>
               <path d="m10176 1828.8 101.2 233.51-45 76.79-481.05-346.85 424.85 36.55" fill="#da3b63"/>
               <path d="m12698 2535.2-134.8-50.58 130.4-301.02 6.2 2.24-1.8 349.36" fill="#d88247"/>
               <path d="m9539.3 1976.4 149.19-129.81 416.67 508.85-480.32-103.76-86.72-46.52 1.18-228.76" fill="#ad002f"/>
               <path d="m10534 1624.1-97 165.53-235.7-165.41 332.7-0.12" fill="#da544b"/>
               <path d="m10201 1624.2 235.7 165.41-159.8 272.62-101.2-233.51-88.6-204.48 113.9-0.04" fill="#dd527b"/>
               <path d="m11108 3380.5-13.9 20.04-237.5 0.09-50.5-116.58 301.9 96.45" fill="#25346b"/>
               <path d="m11171 3400.5-76.5 0.03 13.9-20.04z" fill="#5a9fc7"/>
               <path d="m10572 3373.8c53.5-15.88 101.7-43.44 160.2-59.99 27.5-8.27 48.1-22.05 74-29.85" fill="#b9b9b9"/>
               <path d="m10806 3284 50.5 116.58-354.7 0.12z" fill="#333873"/>
               <path d="m10124 3122.4 72.4-33.37 610.4 195.02-304.2 116.7-348.2 0.13-30.4-278.48" fill="#324988"/>
               <path d="m9532.1 3387.9 362.8-200.93 31.74 26.18-394.58 181.84 0.04-7.09" fill="#533b6e"/>
               <path d="m11108 3380.5 281.7-406.31 197.6 426.17-416.7 0.15-62.6-20.01" fill="#4368b5"/>
               <path d="m10124 3122.4 30.4 278.48-227.46-187.65z" fill="#31407b"/>
               <path d="m9532.1 3395 394.58-181.84 227.46 187.65-622.07 0.23 0.03-6.04" fill="#382164"/>
               <path d="m11390 2974.2 178 128.3 358 258.12-53.3 39.64-285.1 0.11-197.6-426.17" fill="#79a789"/>
               <path d="m12693 3399.9-527 0.2 131.7-304.03 395.4 277.55-0.1 26.28" fill="#dd7465"/>
               <path d="m12694 3373.6-395.4-277.55 8-18.46 182.8-136.13 205.4 275.82-0.8 156.32" fill="#e27f92"/>
               <path d="m12696 2786.9-2.2 430.38-205.4-275.81z" fill="#e9a75d"/>
               <path d="m12289 3090 8.7 6.06-131.7 304.03-185.4 0.06-54.9-39.6 363.3-270.55" fill="#eab477"/>
               <path d="m12563 2484.6 134.8 50.58-1.3 251.71-207.6 154.57-77.1-103.49-1.2-1.66 152.4-351.71" fill="#e9a75d"/>
               <path d="m11926 3360.6 54.9 39.6-108.2 0.04 53.3-39.64" fill="#6a9168"/>
               <path d="m12118 2444.5-129.8-175.51 574.9 217.1-152.4 354.05-292.7-395.64" fill="#e9a75d"/>
               <path d="m11988 2269-3.2-4.32 410.2-189.04 298.3 107.99-130.4 301.02-574.9-215.65" fill="#e48b24"/>
               <path d="m11926 3360.6-358-258.12 342.2-278.54 15.8 536.66" fill="#a7c28c"/>
               <path d="m12411 2836.3 1.2 1.66-1.7-0.48z" fill="#b9b9b9"/>
               <path d="m11631 2627 779.3 210.49-104 240.09-16.7 12.4-658.9-462.51 0.3-0.47" fill="#f1d365"/>
               <path d="m12412 2838 77.1 103.49-182.8 136.13 104-240.09 1.7 0.47" fill="#edbd44"/>
               <path d="m9538.2 2205.1 86.72 46.53-86.86-18.76z" fill="#69232f"/>
               <path d="m11631 2627 1-1.42 486.1-182.29 292.7 393.01-0.5 1.18-779.3-210.48" fill="#f1cc51"/>
               <path d="m11641 1802.5-353.2 466.7-8.3 0.01-121.7-292.73 483.2-173.98" fill="#eeca70"/>
               <path d="m11158 1976.5 121.7 292.73-159.1 0.06-243.2-170.73-8.1-18.12 288.7-103.94" fill="#de917b"/>
               <path d="m12090 1965.1 6.8 2.47-13.9 7.71 7.1-10.18" fill="#b9b9b9"/>
               <path d="m11552 2269.2-264.7 0.08 353.2-466.7 220.2 295.62-308.7 171" fill="#f5dc4f"/>
               <path d="m11861 2098.2-220.2-295.62 449.1 162.57-7.1 10.18-221.8 122.87" fill="#e8b845"/>
               <path d="m11932 2193.2 151.1-217.9 13.9-7.71 298.5 108.05-410.2 189.04-53.3-71.48" fill="#efc34b"/>
               <path d="m10117 3063.8 6.4 58.54-197.06 90.83-31.74-26.18 222.4-123.19" fill="#56369e"/>
               <path d="m10117 3063.8 478.8-265.19 38.3 88.38-438.3 201.98-78.8-25.17" fill="#56369e"/>
               <path d="m10196 3089-72.4 33.37-6.4-58.54z" fill="#42335a"/>
               <path d="m9534.7 2877.7 582.58 186.15-222.4 123.19-360.25-297.15 0.07-12.19" fill="#4c3f76"/>
               <path d="m9538 2232.9 86.86 18.76 308.61 165.57-397.14 142.99 1.67-327.32" fill="#5d1e3c"/>
               <path d="m9536.4 2560.2 397.14-142.99-156.3 376.82-241.07-191.19 0.23-42.64" fill="#533b6e"/>
               <path d="m9536.1 2602.8 241.07 191.19 340.11 269.78-582.58-186.15 1.4-274.82" fill="#56369e"/>
               <path d="m11390 2974.2" fill="#b9b9b9"/>
               <path d="m11390 2974.2-369.9 27.1 1.5-292.73 368.4 265.63" fill="#8fc3b6"/>
               <path d="m10664 2873.4 357.8-164.92-1.5 292.73-356.3-127.81" fill="#7ea1b2"/>
               <path d="m10664 2873.4 356.3 127.81-229.5 16.83-126.8-144.64" fill="#5a9fc7"/>
               <path d="m11390 2974.2" fill="#b9b9b9"/>
               <path d="m10806 3284-610.4-195.02 438.3-201.98z" fill="#6f3edf"/>
               <path d="m11910 2823.9-2.2-1.53 2.1-1.7z" fill="#b9b9b9"/>
               <path d="m11926 3360.6-15.8-536.66 379.1 266.11-363.3 270.55" fill="#dbd693"/>
               <path d="m11630 2627.5 279.8 196.4-342.2 278.54-178-128.3 240.4-346.64" fill="#c9cb82"/>
               <path d="m10664 2873.4 126.8 144.64 317.7 362.38-301.9-96.45-172.1-397 29.5-13.57" fill="#31407b"/>
               <path d="m11390 2974.2-281.7 406.31-317.7-362.38 599.4-43.93" fill="#4d88b6"/>
               <path d="m10676 4642.1-29.4 13.52-38.1-88.43 1.4-0.79 66.1 75.7" fill="#4368b5"/>
               <path d="m11323 4172.5 58.2 40.99 89.9 63.33-437.6 200.84-114-82.5 403.5-222.66" fill="#aabf8b"/>
               <path d="m10920 4395.1 114 82.5-358.3 164.43-66.1-75.7 310.4-171.23" fill="#697fe5"/>
               <path d="m10479 4266.6-72.1-167.35 93.7-7.82 292 211.33-186.2 259.61 3.5 4.05-1.4 0.79-129.5-300.61" fill="#cc2151"/>
               <path d="m11472 4276.8-69.8 466.99-367.8-266.15 437.6-200.84" fill="#a3cbb9"/>
               <path d="m11989 4039.4 12.6 0.01 129.4 174.53-486.5 181.61 202.7-291.06 141.8-65.09" fill="#f2d263"/>
               <path d="m10972 4052-471.8 39.36-97.1-70.24 467.6-167.56 19.8 13.91 81.5 184.53" fill="#e27f92"/>
               <path d="m11847 4104.5-202.7 291.06-2.7 0.97 1.7 0.45-0.4 0.47-171.3-120.69 375.4-172.26" fill="#dac58e"/>
               <path d="m11472 4276.8 171.3 120.69-241.1 346.3 69.8-466.99" fill="#82b5bd"/>
               <path d="m11644 4395.6-1 1.42-1.7-0.45z" fill="#b9b9b9"/>
               <path d="m10118 4123.2" fill="#b9b9b9"/>
               <path d="m9765.3 3559.6 480.19 347.51-393.71-110.54-149.03-182.75 62.55-54.22" fill="#cc2151"/>
               <path d="m10118 4123.2-266.41-326.71 393.71 110.54z" fill="#b84970"/>
               <path d="m11998 4035.1 3.2 4.32-12.6-0.01z" fill="#b9b9b9"/>
               <path d="m10354 4103.6-119.5 385.96-288.22-304.71 171.82-61.57 235.9-19.68" fill="#b2154a"/>
               <path d="m10118 4123.2" fill="#b9b9b9"/>
               <path d="m10359 3989.4-68.5-158.99 160.4-272.39 419.6 295.61-467.6 167.56-43.9-31.79" fill="#dd7465"/>
               <path d="m10377 4030.5-0.2 0.1-258.5 92.62 127.3-216.17 113.7 82.27 17.7 41.18" fill="#df687b"/>
               <path d="m10246 3907.1 45.2-76.72 68.5 158.99z" fill="#dd527b"/>
               <path d="m9946.4 4184.8 288.22 304.71-105.9 342.15-182.32-646.86" fill="#4c3f76"/>
               <path d="m10129 4831.7" fill="#b9b9b9"/>
               <path d="m10129 4831.7-339.54-270.26 157.22-376.6 182.32 646.86" fill="#6f3edf"/>
               <path d="m9946.4 4184.8-308.24-166.01 480.06 104.44z" fill="#69232f"/>
               <g fill="#b9b9b9">
                  <path d="m10129 4831.7"/>
                  <path d="m9946.4 4184.8"/>
                  <path d="m9946.4 4184.8"/>
               </g>
               <path d="m10479 4266.6 129.5 300.61-479.4 264.52 105.9-342.15 244-222.98" fill="#8828c3"/>
               <path d="m10359 3989.4 43.9 31.79-26.2 9.39z" fill="#df687b"/>
               <path d="m10890 3867.5 242.8 171.07-161.3 13.46-81.5-184.53" fill="#e3b65d"/>
               <path d="m12097 3745.9-151.6 217.69-70.5-95.13 222.1-122.56" fill="#ecb72b"/>
               <path d="m10118 4123.2 258.5-92.62-22.6 72.94-235.9 19.68" fill="#cc2151"/>
               <path d="m10479 4266.6-244 222.98 119.5-385.96 52.4-4.37 72.1 167.35" fill="#b84970"/>
               <path d="m10354 4103.6 22.6-72.94 0.2-0.1 29.6 68.67-52.4 4.37" fill="#dd527b"/>
               <path d="m9546.4 4656.9 359.53 297.65-363.28 200.42z" fill="#42335a"/>
               <path d="m10377 4030.5 26.2-9.39 97.1 70.24-93.7 7.82-29.6-68.67" fill="#cc2151"/>
               <g fill="#b9b9b9">
                  <path d="m11655 3572.5"/>
                  <path d="m12309 4867-8.6-6.08 16.7-12.37z"/>
                  <path d="m10129 4831.7"/>
               </g>
               <path d="m11323 4172.5-190.1-133.92 159.1 0.17 2.9 7.11 28.1 126.64" fill="#eaa961"/>
               <path d="m11892 4039.4 52.7-75.77 53.1 71.56-9.4 4.31-96.4-0.1" fill="#f3d67a"/>
               <path d="m11292 4038.7h8.3l-5.4 7.11-2.9-7.11" fill="#b9b9b9"/>
               <path d="m11323 4172.5-28.1-126.64 5.4-7.11 264.7 0.28-242 133.47" fill="#e19862"/>
               <path d="m11847 4104.5-375.4 172.26-89.9-63.33-58.2-40.99 242-133.47 326.9 0.33-45.4 65.2" fill="#eab477"/>
               <path d="m11565 4039 309.1-170.56 70.5 95.13-52.7 75.76-326.9-0.33" fill="#eec144"/>
               <path d="m10920 4395.1-127.7-92.43 179.8-250.69 161.3-13.46 190.1 133.92-403.5 222.66" fill="#78a688"/>
               <path d="m10610 4566.4-3.5-4.05 186.2-259.61 127.7 92.43-310.4 171.23" fill="#b231dc"/>
               <path d="m11382 4213.5-58.2-40.99 58.2 40.99" fill="#b9b9b9"/>
               <path d="m10792 4302.7-292-211.33 471.8-39.36-179.8 250.69" fill="#dc3b36"/>
               <path d="m11472 4276.8-89.9-63.33 89.9 63.33" fill="#b9b9b9"/>
               <path d="m11989 4039.4-141.8 65.09 45.4-65.19z" fill="#edbf74"/>
               <path d="m9555.9 3391.5 402.74 0.41-193.33 167.62-209.53-151.65 0.12-16.38" fill="#8d3341"/>
               <path d="m12341 3394.4-237.7 341.3-448.6-163.21 497.5-178.29 188.8 0.2" fill="#e09d30"/>
               <path d="m11655 3572.5-772.5 276.85-3.6-8.21 291.3-445 484.8 176.36" fill="#dd7465"/>
               <path d="m11162 3393.2 8.1 2.95-291.3 445-198.1-448.45 481.3 0.5" fill="#da544b"/>
               <path d="m12717 3394.8-0.1 8.73-257.8 142.29-348.7 192.38-6.9-2.49 237.7-341.3 375.8 0.39" fill="#de5c1c"/>
               <path d="m12153 3394.2-497.5 178.29h-0.1l-492.9-179.31 990.5 1.02" fill="#e7994f"/>
               <path d="m10871 3853.6 11.8-4.22 8 18.13-19.8-13.91" fill="#b9b9b9"/>
               <path d="m12715 3706.2-1.8 234.35-6.3 14.55-298.1-108.41 306.2-140.49" fill="#df662c"/>
               <path d="m12715 3706.2-306.2 140.49 50.6-300.83 257.8-142.29-2.2 302.63" fill="#be541b"/>
               <path d="m12111 3738.2 348.7-192.38-50.6 300.83-298.1-108.45" fill="#e09d30"/>
               <path d="m10681 3392.7 198.1 448.45 3.6 8.21-11.8 4.22-419.6-295.61 97.5-165.41 132.2 0.14" fill="#df687b"/>
               <path d="m9555.8 3407.9 209.53 151.65-62.55 54.22-147.18-180.48 0.2-25.39" fill="#9c2339"/>
               <path d="m9555.6 3433.3 147.18 180.48-149.5 129.62z" fill="#69232f"/>
               <path d="m10102 3392.1 88.1 204.6-424.69-37.13 193.33-167.62 143.26 0.15" fill="#bc134c"/>
               <path d="m10190 3596.7 100.7 233.66-45.2 76.72-480.19-347.51 424.69 37.13" fill="#da3b63"/>
               <path d="m12710 4306.7-134.7-50.78 131.1-300.85 6.2 2.26-2.6 349.37" fill="#d88247"/>
               <path d="m9553.3 3743.4 149.5-129.62 415.44 509.46-480.06-104.44-86.6-46.65 1.72-228.75" fill="#ad002f"/>
               <path d="m10549 3392.6-97.5 165.41-235.3-165.75z" fill="#da544b"/>
               <path d="m10216 3392.2 235.3 165.75-160.4 272.39-100.7-233.66-88.1-204.6 113.9 0.12" fill="#dd527b"/>
               <path d="m10135 4890.2 72.5-33.26 609.9 195.87-304.5 116.28-348.1-0.37-29.8-278.52" fill="#324988"/>
               <path d="m9542.7 5155 363.28-200.42 31.68 26.23-395 181.28 0.04-7.09" fill="#533b6e"/>
               <path d="m11119 5149.7 282.7-405.92 196.6 426.45-416.8-0.43-62.5-20.1" fill="#4368b5"/>
               <path d="m10135 4890.2 29.8 278.52-227.08-187.96z" fill="#31407b"/>
               <path d="m9542.6 5162.1 395-181.28 227.08 187.96-622.13-0.64 0.05-6.04" fill="#382164"/>
               <path d="m11402 4743.8 177.6 128.55 357.4 258.63-53.4 39.57-285-0.3-196.6-426.45" fill="#79a789"/>
               <path d="m12704 5171.4-527-0.55 132.4-303.84 394.8 278.1-0.2 26.29" fill="#dd7465"/>
               <path d="m12704 5145.1-394.8-278.1 8.1-18.45 183.1-135.87 204.7 276.1-1.1 156.32" fill="#e27f92"/>
               <path d="m12708 4558.4-3.3 430.39-204.7-276.1z" fill="#e9a75d"/>
               <path d="m12301 4860.9 8.6 6.08-132.4 303.84-185.4-0.19-54.8-39.68 364-270.05" fill="#eab477"/>
               <path d="m12576 4255.9 134.7 50.78-1.9 251.69-208 154.29-76.8-103.61-1.2-1.66 153.2-351.49" fill="#e9a75d"/>
               <path d="m12131 4215.2-129.4-175.69 574.3 217.9-153.2 353.85-291.7-396.06" fill="#e9a75d"/>
               <path d="m12001 4039.5-3.2-4.32 410.6-188.48 298.1 108.41-131.1 300.85-574.4-216.46" fill="#e48b24"/>
               <path d="m11937 5131-357.4-258.63 342.9-278.05 14.5 536.68" fill="#a7c28c"/>
               <path d="m12422 4607.4 1.2 1.66-1.8-0.47z" fill="#b9b9b9"/>
               <path d="m11643 4397 778.7 211.58-104.5 239.95-16.7 12.37-657.9-463.43 0.4-0.47" fill="#f1d365"/>
               <path d="m12424 4609.1 76.8 103.61-183.1 135.87 104.5-239.95 1.8 0.47" fill="#edbd44"/>
               <path d="m9551.5 3972.2 86.6 46.65-86.8-18.89z" fill="#69232f"/>
               <path d="m11643 4397 1-1.42 486.5-181.61 291.8 393.42-0.6 1.19-778.7-211.58" fill="#f1cc51"/>
               <path d="m11655 3572.5" fill="#b9b9b9"/>
               <path d="m11655 3572.5h0.1-0.1" fill="#b9b9b9"/>
               <path d="m11655 3572.5h0.1l-354.4 466.22h-8.3l-121-292.91 483.6-173.31" fill="#eeca70"/>
               <path d="m11171 3745.8 121 292.91-159.1-0.17-242.8-171.07-8-18.13 288.9-103.54" fill="#de917b"/>
               <path d="m12104 3735.7 6.9 2.49-14 7.68 7.1-10.17" fill="#b9b9b9"/>
               <path d="m11565 4039-264.7-0.28 354.4-466.22 219.4 295.94-309.1 170.56" fill="#f5dc4f"/>
               <path d="m11874 3868.4-219.4-295.94 448.6 163.21-7.1 10.17-222.1 122.56" fill="#e8b845"/>
               <path d="m11945 3963.6 151.6-217.69 14-7.68 298.1 108.45-410.6 188.48-53.1-71.56" fill="#efc34b"/>
               <path d="m10129 4831.7 6.2 58.55-197.28 90.56-31.68-26.23 222.76-122.88" fill="#56369e"/>
               <path d="m10129 4831.7 479.4-264.52 38.1 88.43-438.8 201.38-78.7-25.29" fill="#56369e"/>
               <path d="m10207 4857-72.5 33.26-6.2-58.55z" fill="#42335a"/>
               <path d="m9546.5 4644.7 582.21 186.96-222.76 122.88-359.53-297.65 0.08-12.19" fill="#4c3f76"/>
               <path d="m9551.3 3999.9 86.8 18.89 308.24 166.01-397.5 142.44 2.46-327.34" fill="#5d1e3c"/>
               <path d="m9548.9 4327.3 397.5-142.44-157.22 376.6-240.6-191.53 0.32-42.63" fill="#533b6e"/>
               <path d="m9548.6 4369.9 240.6 191.53 339.54 270.26-582.21-186.96 2.07-274.83" fill="#56369e"/>
               <path d="m11402 4743.8-370 26.59 2.2-292.74 367.8 266.15" fill="#8fc3b6"/>
               <path d="m10676 4642.1 358.3-164.42-2.2 292.73z" fill="#7ea1b2"/>
               <path d="m10676 4642.1 356.1 128.31-229.6 16.5z" fill="#5a9fc7"/>
               <path d="m10817 5052.8-609.9-195.87 438.8-201.38 171.1 397.25" fill="#6f3edf"/>
               <path d="m11922 4594.3-2.2-1.52 2.1-1.71z" fill="#b9b9b9"/>
               <path d="m11937 5131-14.5-536.68 378.5 266.63-364 270.05" fill="#dbd693"/>
               <path d="m11643 4397.5 279.4 196.8-342.9 278.05-177.6-128.55 241.1-346.3" fill="#c9cb82"/>
               <path d="m10676 4642.1 126.5 144.81 316.9 362.83-301.7-96.87-171.1-397.25 29.4-13.52" fill="#31407b"/>
               <path d="m11402 4743.8-282.7 405.92-316.9-362.83 599.6-43.09" fill="#4d88b6"/>
               <path d="m8420.9 4631.7 29.36 13.46 38.77-88.51-1.43-0.8-66.7 75.85" fill="#4368b5"/>
               <path d="m7776.7 4163.6-148.89 104.65 436.09 199.87 114.64-82.77-401.84-221.75" fill="#aabf8b"/>
               <path d="m8178.6 4385.4-114.64 82.77 356.99 163.61 66.7-75.85-309.05-170.53" fill="#697fe5"/>
               <path d="m8620.8 4255.8 73.39-167.52-93.62-7.6-293.65 211.99 184.2 259.19-3.56 4.05 1.43 0.8 131.81-300.91" fill="#cc2151"/>
               <path d="m7627.8 4268.2 66.28 466.83 369.81-266.96z" fill="#a3cbb9"/>
               <path d="m7112.5 4032-12.6 0.04-130.76 174.82 485.17 180.53-200.47-290.61-141.34-64.78" fill="#f2d263"/>
               <path d="m8129.1 4042.3 471.52 38.31 97.59-70.46-466.34-166.52-19.86 13.96-82.91 184.71" fill="#e27f92"/>
               <path d="m7253.8 4096.8 200.47 290.61 2.6 0.96-1.63 0.45 0.33 0.48 172.24-121.08-374.01-171.42" fill="#dac58e"/>
               <path d="m7627.8 4268.2-172.24 121.08 238.52 345.75-66.28-466.83" fill="#82b5bd"/>
               <path d="m7454.3 4387.4 0.97 1.41 1.63-0.45z" fill="#b9b9b9"/>
               <path d="m8982.4 4111.7" fill="#b9b9b9"/>
               <path d="m9339.6 3547.2-482.87 348.6 394.58-111.42 150.42-183.09-62.13-54.09" fill="#cc2151"/>
               <path d="m8982.4 4111.7 268.93-327.31-394.58 111.42z" fill="#b84970"/>
               <path d="m7103.1 4027.8-3.23 4.32 12.6-0.04z" fill="#b9b9b9"/>
               <path d="m8746.6 4092.5 116.52 385.69 290.56-305.36-171.35-61.18-235.73-19.15" fill="#b2154a"/>
               <path d="m8982.4 4111.7" fill="#b9b9b9"/>
               <path d="m8742.4 3978.3 69.71-159.14-158.34-272.04-421.9 296.55 466.34 166.52 44.19-31.89" fill="#dd7465"/>
               <path d="m8724.3 4019.5 0.28 0.09 257.75 92.05-125.65-215.89-114.31 82.53-18.07 41.22" fill="#df687b"/>
               <path d="m8856.7 3895.8-44.6-76.61-69.71 159.14z" fill="#dd527b"/>
               <path d="m9153.7 4172.8-290.56 305.36 103.29 341.92 187.27-647.28" fill="#4c3f76"/>
               <path d="m8966.4 4820.1" fill="#b9b9b9"/>
               <path d="m8966.4 4820.1 341.59-271.02-154.32-376.26-187.27 647.28" fill="#6f3edf"/>
               <path d="m9153.7 4172.8 309.5-166.7-480.85 105.52z" fill="#69232f"/>
               <g fill="#b9b9b9">
                  <path d="m8966.4 4820.1"/>
                  <path d="m9153.7 4172.8"/>
                  <path d="m9153.7 4172.8"/>
               </g>
               <path d="m8620.8 4255.8-131.81 300.91 477.4 263.44-103.29-341.92-242.3-222.43" fill="#8828c3"/>
               <path d="m8742.4 3978.3-44.19 31.89 26.12 9.33z" fill="#df687b"/>
               <path d="m8212 3857.6-244.15 171.62 161.24 13.09z" fill="#e3b65d"/>
               <path d="m7006.8 3738.7 149.93 217.35 71.27-95.29z" fill="#ecb72b"/>
               <path d="m8982.4 4111.7-257.75-92.05 22.02 72.9 235.73 19.15" fill="#cc2151"/>
               <path d="m8620.8 4255.8 242.3 222.43-116.52-385.69-52.39-4.26-73.39 167.52" fill="#b84970"/>
               <path d="m8746.6 4092.5-22.02-72.9-0.28-0.09-30.09 68.73 52.39 4.26" fill="#dd527b"/>
               <path d="m9550 4644-361.83 298.46 361.73 199.61z" fill="#42335a"/>
               <path d="m8724.3 4019.5-26.12-9.33-97.59 70.46 93.62 7.6 30.09-68.73" fill="#cc2151"/>
               <g fill="#b9b9b9">
                  <path d="m7449.7 3564.4"/>
                  <path d="m6785.5 4860.3 8.68-6.1-16.58-12.33z"/>
                  <path d="m8966.4 4820.1"/>
               </g>
               <path d="m7776.7 4163.6 191.14-134.35-159.05 0.52-2.99 7.12-29.1 126.71" fill="#eaa961"/>
               <path d="m7208.9 4031.7-52.19-75.65-53.62 71.68 9.37 4.28 96.44-0.31" fill="#f3d67a"/>
               <path d="m7808.8 4029.8-8.34 0.03 5.35 7.09z" fill="#b9b9b9"/>
               <path d="m7776.7 4163.6 29.1-126.71-5.35-7.09-264.65 0.86 240.9 132.94" fill="#e19862"/>
               <path d="m7253.8 4096.8 374.01 171.42 90.4-63.54 58.49-41.11-240.9-132.94-326.9 1.08 44.9 65.09" fill="#eab477"/>
               <path d="m7535.8 4030.7-307.82-169.86-71.27 95.29 52.19 75.65 326.9-1.08" fill="#eec144"/>
               <path d="m8178.6 4385.4 128.41-92.71-177.87-250.3-161.24-13.09-191.14 134.35 401.84 221.75" fill="#78a688"/>
               <path d="m8487.6 4555.9 3.56-4.05-184.2-259.19-128.41 92.71 309.05 170.53" fill="#b231dc"/>
               <path d="m7718.2 4204.7 58.49-41.11-58.49 41.11" fill="#b9b9b9"/>
               <path d="m8307 4292.6 293.65-211.99-471.52-38.31z" fill="#dc3b36"/>
               <path d="m7627.8 4268.2 90.4-63.54-90.4 63.54" fill="#b9b9b9"/>
               <path d="m7112.5 4032 141.34 64.78-44.9-65.09z" fill="#edbf74"/>
               <path d="m9550.3 3378.7-402.75 1.32 192.04 167.17 210.7-152.11 0.01-16.38" fill="#8d3341"/>
               <path d="m6764.7 3387.8 235.06 340.76 449.95-164.21-496.18-177.17-188.83 0.62" fill="#e09d30"/>
               <path d="m7449.7 3564.4 770.43 275.11 3.69-8.21-287.88-444.36-486.24 177.46" fill="#dd7465"/>
               <path d="m7944.1 3384-8.12 2.96 287.88 444.36 201.47-448.9-481.23 1.58" fill="#da544b"/>
               <path d="m6388.9 3389v8.73l604.01 333.3 6.85-2.5-235.06-340.76-375.8 1.23" fill="#de5c1c"/>
               <path d="m6953.5 3387.2 496.18 177.17 494.36-180.42z" fill="#e7994f"/>
               <path d="m8231.9 3843.7-11.71-4.19-8.15 18.15z" fill="#b9b9b9"/>
               <path d="m6388.9 3700.4-0.05 234.35 6.23 14.53 298.87-109.08-305.05-139.8" fill="#df662c"/>
               <path d="m6388.9 3700.4 305.05 139.8-48.2-300.72-256.8-141.71-0.05 302.63" fill="#be541b"/>
               <path d="m6992.9 3731.1-347.21-191.59 48.2 300.72z" fill="#e09d30"/>
               <path d="m8425.3 3382.4-201.47 448.9-3.69 8.21 11.71 4.19 421.9-296.55-96.15-165.19-132.3 0.44" fill="#df687b"/>
               <path d="m9550.3 3395.1-210.7 152.11 62.13 54.09 148.57-180.82v-25.38" fill="#9c2339"/>
               <path d="m9550.3 3420.4-148.57 180.82 148.51 129.29z" fill="#69232f"/>
               <path d="m9004.3 3380.5-89.72 204.8 425.02-38.09-192.04-167.17-143.26 0.46" fill="#bc134c"/>
               <path d="m8914.6 3585.3-102.45 233.9 44.6 76.61 482.87-348.6-425.02 38.09" fill="#da3b63"/>
               <path d="m6388.7 4300.9 135.11-51.07-128.81-300.56-6.23 2.28-0.07 349.35" fill="#d88247"/>
               <path d="m9550.2 3730.6-148.51-129.29-419.35 510.4 480.85-105.52 86.96-46.84 0.05-228.75" fill="#ad002f"/>
               <path d="m8557.6 3381.9 96.15 165.19 236.55-166.28z" fill="#da544b"/>
               <path d="m8890.3 3380.8-236.55 166.28 158.34 272.04 102.45-233.9 89.72-204.8-113.96 0.38" fill="#dd527b"/>
               <path d="m8959.7 4878.7-72.24-33.11-611.41 197.24 303.59 115.6 348.16-1.14 31.9-278.59" fill="#324988"/>
               <path d="m9549.9 5142.1-361.73-199.61-31.87 26.29 393.6 180.41v-7.09" fill="#533b6e"/>
               <path d="m7973.7 5140.4-279.58-405.3-199.88 426.9 416.74-1.36 62.72-20.24" fill="#4368b5"/>
               <path d="m8959.7 4878.7-31.9 278.59 228.51-188.49z" fill="#31407b"/>
               <path d="m9549.9 5149.2-393.6-180.41-228.51 188.49 622.11-2.04v-6.04" fill="#382164"/>
               <path d="m7694.1 4735.1-178.63 128.96-359.36 259.43 53.03 39.44 285.08-0.93 199.88-426.9" fill="#79a789"/>
               <path d="m6388.6 5165.6 527-1.73-130.08-303.54-396.91 278.98-0.01 26.29" fill="#dd7465"/>
               <path d="m6388.6 5139.3 396.91-278.98-7.9-18.43-182.11-135.47-206.87 276.56-0.03 156.32" fill="#e27f92"/>
               <path d="m6388.7 4552.6-0.08 430.38 206.87-276.56z" fill="#e9a75d"/>
               <path d="m6794.2 4854.2-8.68 6.1 130.08 303.54 185.41-0.61 55.13-39.8-361.94-269.23" fill="#eab477"/>
               <path d="m6523.8 4249.8-135.11 51.07-0.05 251.7 206.79 153.82 77.61-103.78 1.25-1.66-150.49-351.15" fill="#e9a75d"/>
               <path d="m6388.8 3934.8v16.81l6.23-2.28z" fill="#b44718"/>
               <path d="m6969.1 4208.1 130.76-175.99-576.02 219.2 150.49 353.51 294.77-396.72" fill="#e9a75d"/>
               <path d="m7099.9 4032.1 3.23-4.32-409.19-187.56-298.87 109.08 128.81 300.56 576.02-217.76" fill="#e48b24"/>
               <path d="m7156.1 5123.5 359.36-259.43-340.76-277.29z" fill="#a7c28c"/>
               <path d="m6674.3 4601-1.25 1.66 1.76-0.48z" fill="#b9b9b9"/>
               <path d="m7455.2 4388.8-780.4 213.33 102.74 239.73 16.58 12.33 661.41-464.91-0.33-0.48" fill="#f1d365"/>
               <path d="m6673.1 4602.7-77.61 103.78 182.11 135.47-102.74-239.73-1.76 0.48" fill="#edbd44"/>
               <path d="m9550.2 3959.3-86.96 46.84 86.96-19.08z" fill="#69232f"/>
               <path d="m7455.2 4388.8-0.97-1.41-485.17-180.53-294.77 394.09 0.51 1.18 780.4-213.33" fill="#f1cc51"/>
               <path d="m7449.7 3564.4" fill="#b9b9b9"/>
               <path d="m7449.7 3564.4" fill="#b9b9b9"/>
               <path d="m7449.7 3564.4 350.74 465.43 8.34-0.03 123.21-293.18-482.29-172.22" fill="#eeca70"/>
               <path d="m7932 3736.6-123.21 293.18 159.05-0.52 244.15-171.62 8.15-18.15-288.14-102.89" fill="#de917b"/>
               <path d="m6999.8 3728.6-6.85 2.5 13.87 7.66z" fill="#b9b9b9"/>
               <path d="m7535.8 4030.7 264.65-0.86-350.74-465.43-221.73 296.43 307.82 169.86" fill="#f5dc4f"/>
               <path d="m7228 3860.8 221.73-296.43-449.95 164.21 7.02 10.16 221.2 122.06" fill="#e8b845"/>
               <path d="m7156.7 3956.1-149.93-217.35-13.87-7.66-299.01 109.13 409.19 187.56 53.62-71.68" fill="#efc34b"/>
               <path d="m8966.4 4820.1-6.7 58.57 196.61 90.1 31.87-26.29-221.78-122.38" fill="#56369e"/>
               <path d="m8966.4 4820.1-477.4-263.44-38.77 88.51 437.23 200.39 78.94-25.46" fill="#56369e"/>
               <path d="m8887.5 4845.6 72.24 33.11 6.7-58.57z" fill="#42335a"/>
               <path d="m9550 4631.8-583.61 188.27 221.78 122.38 361.83-298.46v-12.19" fill="#4c3f76"/>
               <path d="m9550.2 3987.1-86.96 19.08-309.5 166.7 396.4 141.55 0.06-327.33" fill="#5d1e3c"/>
               <path d="m9550.1 4314.4-396.4-141.55 154.32 376.26 242.07-192.08 0.01-42.63" fill="#533b6e"/>
               <path d="m9550.1 4357-242.07 192.08-341.59 271.02 583.61-188.27 0.05-274.83" fill="#56369e"/>
               <path d="m7694.1 4735.1" fill="#b9b9b9"/>
               <path d="m7694.1 4735.1 369.75 25.76 0.06-292.72z" fill="#8fc3b6"/>
               <path d="m8420.9 4631.7-356.99-163.61-0.06 292.72z" fill="#7ea1b2"/>
               <path d="m8420.9 4631.7-357.05 129.11 229.48 15.99z" fill="#5a9fc7"/>
               <path d="m7694.1 4735.1" fill="#b9b9b9"/>
               <path d="m8276.1 5042.8 611.41-197.24-437.23-200.39z" fill="#6f3edf"/>
               <path d="m7174.7 4586.8 2.17-1.52-2.07-1.71z" fill="#b9b9b9"/>
               <path d="m7156.1 5123.5 18.6-536.72-380.54 267.49 361.94 269.23" fill="#dbd693"/>
               <path d="m7455.6 4389.3-280.87 197.42 340.76 277.29 178.63-128.96-238.52-345.75" fill="#c9cb82"/>
               <path d="m8420.9 4631.7-127.57 145.1-319.65 363.55 302.4-97.56 174.18-397.63-29.36-13.46" fill="#31407b"/>
               <path d="m7694.1 4735.1 279.58 405.3 319.65-363.55z" fill="#4d88b6"/>
               <path d="m7218.2 700.24-77.56-49.023-119.87-75.778 582.73-239.37 152.01 98.7-537.31 265.47" fill="#aabf8b"/>
               <path d="m7755.5 434.77-152.01-98.7 477.06-195.97 88.18 90.507-413.23 204.16" fill="#697fe5"/>
               <path d="m8343.6 588.89 96.29 199.99-124.78 9.223-389.34-252.78 247.67-309.88-4.71-4.832 1.92-0.961 172.95 359.24" fill="#cc2151"/>
               <path d="m7020.7 575.44 92.41-557.72 490.32 318.35z" fill="#a3cbb9"/>
               <path d="m6332.1 858.34-16.79-0.02-172.66-208.64 647.95-216.34-269.64 347.42-188.86 77.578" fill="#f2d263"/>
               <path d="m7686.6 844.56 628.52-46.457 129.4 84.019-622.75 199.61-26.34-16.66-108.83-220.51" fill="#e27f92"/>
               <path d="m6520.9 780.76 269.64-347.42 3.49-1.16-2.18-0.532 0.44-0.566 228.41 144.37-499.8 205.31" fill="#dac58e"/>
               <path d="m7020.7 575.44-228.41-144.36 320.82-413.36-92.41 557.72" fill="#82b5bd"/>
               <path d="m6790.6 433.34 1.31-1.692 2.18 0.532z" fill="#b9b9b9"/>
               <path d="m9294.9 1434.2-640.24-415.68 524.7 132.51 198.79 218.48-83.25 64.69" fill="#cc2151"/>
               <path d="m8823.9 760.5 355.4 390.57-524.7-132.51 169.3-258.06" fill="#b84970"/>
               <path d="m6319.6 863.48-4.28-5.16 16.79 0.02z" fill="#b9b9b9"/>
               <path d="m8509.7 783.72 158.63-460.88 384.4 364.32-228.82 73.34-314.21 23.219" fill="#b2154a"/>
               <path d="m8503.1 920.15 91.47 189.99-213.35 325.18-559.45-353.59 622.75-199.61 58.58 38.027" fill="#dd7465"/>
               <path d="m8479.4 870.94 0.36-0.109 344.2-110.33-169.3 258.06-151.56-98.412-23.7-49.207" fill="#df687b"/>
               <path d="m8654.6 1018.6-60.09 91.58-91.47-189.99 151.56 98.412" fill="#dd527b"/>
               <path d="m9052.8 687.16-384.4-364.32 140.62-408.57 243.78 772.89" fill="#4c3f76"/>
               <path d="m8809-85.73 452.69 323.24-208.91 449.65-243.78-772.89" fill="#6f3edf"/>
               <path d="m9052.8 687.16 410.87 198.66-639.69-125.32 228.82-73.34" fill="#69232f"/>
               <path d="m8343.6 588.89-172.95-359.24 638.34-315.38-140.62 408.57-324.77 266.05" fill="#8828c3"/>
               <path d="m8503.1 920.15-58.58-38.027 34.88-11.18 23.7 49.207" fill="#df687b"/>
               <path d="m7795.4 1065.1-323.77-204.63 214.94-15.882 108.83 220.51" fill="#e3b65d"/>
               <path d="m6188.7 1208.9 201.67-259.85 94.11 113.71z" fill="#ecb72b"/>
               <path d="m8823.9 760.5-344.2 110.33 29.99-87.113 314.21-23.219" fill="#cc2151"/>
               <path d="m8343.6 588.89 324.77-266.05-158.63 460.88-69.85 5.16-96.29-199.99" fill="#b84970"/>
               <path d="m8509.7 783.72-29.99 87.113-0.36 0.109-39.5-82.062 69.85-5.16" fill="#dd527b"/>
               <path d="m8479.4 870.94-34.88 11.18-129.4-84.019 124.78-9.223 39.5 82.062" fill="#cc2151"/>
               <path d="m6777.2 1416.5" fill="#b9b9b9"/>
               <path d="m7218.2 700.24 253.46 160.19-211.89-0.391-3.92-8.5-37.65-151.3" fill="#eaa961"/>
               <path d="m6460.6 858.58-70.19 90.438-70.79-85.54 12.51-5.14 128.47 0.242" fill="#f3d67a"/>
               <path d="m7259.7 860.04-11.11-0.019 7.19-8.481z" fill="#b9b9b9"/>
               <path d="m7218.2 700.24 37.65 151.3-7.19 8.481-352.57-0.641 322.11-159.14" fill="#e19862"/>
               <path d="m6520.9 780.76 499.8-205.31 197.43 124.79-322.11 159.14-435.52-0.797 60.4-77.82" fill="#eab477"/>
               <path d="m6896.1 859.38-411.59 203.35-94.11-113.71 70.19-90.438 435.51 0.797" fill="#eec144"/>
               <path d="m7755.5 434.77 170.27 110.55-239.18 299.24-214.94 15.882-253.46-160.2 537.31-265.47" fill="#78a688"/>
               <path d="m8168.7 230.61 4.71 4.832-247.67 309.88-170.27-110.55 413.23-204.16" fill="#b231dc"/>
               <path d="m7140.6 651.22 77.56 49.023-77.56-49.023" fill="#b9b9b9"/>
               <path d="m7925.8 545.32 389.34 252.78-628.52 46.457 239.18-299.24" fill="#dc3b36"/>
               <path d="m7020.7 575.44 119.87 75.778-119.87-75.778" fill="#b9b9b9"/>
               <path d="m6332.1 858.34 188.87-77.578-60.4 77.82z" fill="#edbf74"/>
               <path d="m9574.1 1635.2-536.55-0.97 257.32-199.99 279.38 181.39-0.15 19.57" fill="#8d3341"/>
               <path d="m5863.1 1628.4 316.19-407.39 597.98 195.48-662.59 212.37-251.58-0.46" fill="#e09d30"/>
               <path d="m6777.2 1416.5 1028.8-329.76 4.84 9.82-387.45 531.2-646.23-211.26" fill="#dd7465"/>
               <path d="m7434.3 1631.3-10.8-3.53 387.45-531.2 264.46 535.91-641.11-1.18" fill="#da544b"/>
               <path d="m5362.4 1627.5 0.08-10.44 807.63-399.03 9.11 2.99-316.19 407.39-500.63-0.91" fill="#de5c1c"/>
               <path d="m6114.7 1628.9 662.59-212.37 657.03 214.79-1319.6-2.42" fill="#e7994f"/>
               <path d="m7821.7 1081.7-15.65 5.01-10.69-21.66z" fill="#b9b9b9"/>
               <path d="m5365.1 1255.6 2-279.92 8.43-17.371 397.2 129.84-407.63 167.45" fill="#df662c"/>
               <path d="m5365.1 1255.6 407.63-167.45-66.85 359.29-343.37 169.65 2.59-361.49" fill="#be541b"/>
               <path d="m6170.2 1218-464.26 229.38 66.85-359.29z" fill="#e09d30"/>
               <path d="m8075.4 1632.5-264.46-535.91-4.84-9.82 15.65-5 559.45 353.59-129.55 197.46-176.25-0.32" fill="#df687b"/>
               <path d="m9574.2 1615.6-279.38-181.39 83.25-64.69 196.34 215.76-0.21 30.32" fill="#9c2339"/>
               <path d="m9574.5 1585.3-196.34-215.76 199-154.65-2.66 370.41" fill="#69232f"/>
               <path d="m8846.7 1633.9-117.72-244.49 565.9 44.86-257.32 199.98-190.86-0.35" fill="#bc134c"/>
               <path d="m8729 1389.4-134.43-279.24 60.09-91.58 640.24 415.68-565.9-44.86" fill="#da3b63"/>
               <path d="m9577.1 1214.9-199 154.65-554.19-609.05 639.69 125.32 115.45 55.84-1.95 273.24" fill="#ad002f"/>
               <path d="m8251.6 1632.8 129.55-197.46 313.69 198.27z" fill="#da544b"/>
               <path d="m8694.9 1633.6-313.69-198.27 213.35-325.18 134.43 279.24 117.72 244.49-151.81-0.28" fill="#dd527b"/>
               <path d="m5549.8 599.06-179.55-60.797 2.16-300.66 276.84-184.04 102.5 123.85 1.64 1.981-203.59 419.67" fill="#e9a75d"/>
               <path d="m6142.6 648.3 172.66 210.02-765.48-260.98 203.62-422.48 389.2 473.44" fill="#e9a75d"/>
               <path d="m6315.3 858.32 4.28 5.16-546.82 224.63-397.2-129.84 174.25-359.21 765.49 259.26" fill="#e48b24"/>
               <path d="m6791.9 431.65-1037.8-253.68 138.99-286.49 22.19-14.761 877.07 554.36-0.44 0.566" fill="#f1d365"/>
               <path d="m9579.1 941.66-115.45-55.828 115.69 22.66z" fill="#69232f"/>
               <path d="m6791.9 431.65-1.31 1.692-647.95 216.34-389.24-470.29 0.69-1.411 1037.8 253.67" fill="#f1cc51"/>
               <path d="m6777.2 1416.5" fill="#b9b9b9"/>
               <path d="m6777.2 1416.5" fill="#b9b9b9"/>
               <path d="m6777.2 1416.5 471.38-556.47 11.12 0.031 161.56 350.01-644.06 206.43" fill="#eeca70"/>
               <path d="m7421.3 1210.1-161.56-350.01 211.88 0.39 323.77 204.63 10.69 21.66-384.78 123.33" fill="#de917b"/>
               <path d="m6179.3 1221-9.11-2.99 18.53-9.15z" fill="#b9b9b9"/>
               <path d="m6896.1 859.38 352.57 0.641-471.38 556.47-292.78-353.76 411.59-203.35" fill="#f5dc4f"/>
               <path d="m6484.5 1062.7 292.78 353.76-597.98-195.48 9.42-12.14 295.78-146.14" fill="#e8b845"/>
               <path d="m6390.4 949.02-201.67 259.85-18.53 9.15-397.41-129.91 546.82-224.63 70.79 85.54" fill="#efc34b"/>
               <path d="m9579.3 908.49-115.68-22.672-410.87-198.66 529.36-169.66-2.81 390.99" fill="#5d1e3c"/>
               <path d="m9582.1 517.5-529.36 169.66 208.91-449.65 320.81 229.07-0.36 50.918" fill="#533b6e"/>
               <path d="m9582.5 466.58-320.81-229.08-452.69-323.23 775.85 224.04-2.35 328.27" fill="#56369e"/>
               <path d="m7113.2 17.719 492.83-31.309-2.51 349.66z" fill="#8fc3b6"/>
               <path d="m8080.5 140.1-477.06 195.97 2.51-349.66z" fill="#7ea1b2"/>
               <path d="m6792.3 431.08-372.46-235.41 456.44-331.72 236.84 153.77-320.82 413.36" fill="#c9cb82"/>
               <path d="m11329 712.96 58.5-49.102 90.4-75.898-436.1-238.73-114.7 98.872 401.9 264.86" fill="#aabf8b"/>
               <path d="m10927 448.1 114.7-98.872-357-195.45-66.7 90.61 309 203.71" fill="#697fe5"/>
               <path d="m10485 602.87-73.3 200.1 93.6 9.09 293.6-253.22-184.2-309.61 3.6-4.839-1.4-0.95-131.9 359.43" fill="#cc2151"/>
               <path d="m11478 587.96-66.3-557.62-369.8 318.89z" fill="#a3cbb9"/>
               <path d="m11993 870.09 12.6-0.039 130.8-208.83-485.2-215.62 200.5 347.12 141.3 77.371" fill="#f2d263"/>
               <path d="m10977 857.81-471.5-45.75-97.6 84.16 466.3 198.9 19.9-16.68 82.9-220.63" fill="#e27f92"/>
               <path d="m11852 792.72-200.5-347.12-2.6-1.161 1.6-0.539-0.3-0.562-172.2 144.62 374 204.76" fill="#dac58e"/>
               <path d="m11478 587.96 172.2-144.62-238.5-413 66.3 557.62" fill="#82b5bd"/>
               <path d="m11652 445.6-1-1.7-1.6 0.539z" fill="#b9b9b9"/>
               <path d="m9766.2 1449.3 482.88-416.39-394.59 133.09-150.42 218.69 62.13 64.61" fill="#cc2151"/>
               <path d="m10123 775.02-268.89 390.96 394.59-133.09-125.7-257.87" fill="#b84970"/>
               <path d="m12003 875.22 3.2-5.168-12.6 0.039z" fill="#b9b9b9"/>
               <path d="m10359 797.89-116.5-460.71-290.61 364.75 171.31 73.09 235.8 22.871" fill="#b2154a"/>
               <path d="m10363 934.31-69.7 190.1 158.3 324.94 421.9-354.23-466.3-198.9-44.2 38.09" fill="#dd7465"/>
               <path d="m10382 885.07-0.3-0.121-257.8-109.93 125.7 257.87 114.3-98.581 18.1-49.239" fill="#df687b"/>
               <path d="m10249 1032.9 44.6 91.52 69.7-190.1-114.3 98.581" fill="#dd527b"/>
               <path d="m9952.1 701.93 290.61-364.75-103.3-408.41-187.31 773.16" fill="#4c3f76"/>
               <path d="m10139-71.23-341.63 323.73 154.32 449.43 187.31-773.16" fill="#6f3edf"/>
               <path d="m9952.1 701.93-309.5 199.12 480.81-126.03-171.31-73.09" fill="#69232f"/>
               <path d="m10485 602.87 131.9-359.43-477.4-314.67 103.3 408.41 242.2 265.69" fill="#8828c3"/>
               <path d="m10363 934.31 44.2-38.09-26.1-11.149-18.1 49.239" fill="#df687b"/>
               <path d="m10894 1078.4 244.1-204.99-161.2-15.64-82.9 220.63" fill="#e3b65d"/>
               <path d="m12099 1220.5-149.9-259.62-71.3 113.81z" fill="#ecb72b"/>
               <path d="m10123 775.02 257.8 109.93-22-87.058-235.8-22.871" fill="#cc2151"/>
               <path d="m10485 602.87-242.2-265.69 116.5 460.71 52.4 5.078 73.3-200.1" fill="#b84970"/>
               <path d="m10359 797.89 22 87.058 0.3 0.121 30.1-82.101-52.4-5.078" fill="#dd527b"/>
               <path d="m10382 885.07 26.1 11.149 97.6-84.16-93.6-9.09-30.1 82.101" fill="#cc2151"/>
               <path d="m11656 1428.8" fill="#b9b9b9"/>
               <path d="m11329 712.97-191.2 160.48 159.1-0.617 3-8.512 29.1-151.35" fill="#eaa961"/>
               <path d="m11897 870.47 52.2 90.371 53.6-85.621-9.4-5.129-96.4 0.379" fill="#f3d67a"/>
               <path d="m11297 872.83 8.3-0.031-5.3-8.481z" fill="#b9b9b9"/>
               <path d="m11329 712.96-29.1 151.36 5.3 8.481 264.7-1.039-240.9-158.8" fill="#e19862"/>
               <path d="m11852 792.72-374-204.75-148.9 125 240.9 158.79 326.9-1.293-44.9-77.75" fill="#eab477"/>
               <path d="m11570 871.76 307.8 202.9 71.3-113.82-52.2-90.371-326.9 1.293" fill="#eec144"/>
               <path d="m10927 448.1-128.4 110.74 177.9 298.97 161.2 15.64 191.2-160.48-401.9-264.87" fill="#78a688"/>
               <path d="m10618 244.39-3.6 4.839 184.2 309.6 128.4-110.73-309-203.71" fill="#b231dc"/>
               <path d="m11388 663.86-58.5 49.102 58.5-49.102" fill="#b9b9b9"/>
               <path d="m10799 558.84-293.6 253.22 471.5 45.75-177.9-298.97" fill="#dc3b36"/>
               <path d="m11478 587.96-90.4 75.898 90.4-75.898" fill="#b9b9b9"/>
               <path d="m11993 870.09-141.3-77.371 44.9 77.75 96.4-0.379" fill="#edbf74"/>
               <path d="m9555.5 1650.6 402.75-1.57-192.04-199.7-210.7 181.7-0.01 19.57" fill="#8d3341"/>
               <path d="m12341 1639.6-235.1-407.04-449.9 196.16 496.1 211.63 188.9-0.75" fill="#e09d30"/>
               <path d="m11656 1428.8-770.5-328.63-3.6 9.82 287.8 530.78 486.3-211.97" fill="#dd7465"/>
               <path d="m11162 1644.3 8.1-3.54-287.8-530.78-201.5 536.21 481.2-1.89" fill="#da544b"/>
               <path d="m12717 1638.2v-10.42l-604-398.14-6.9 2.99 235.1 407.04 375.8-1.47" fill="#de5c1c"/>
               <path d="m12152 1640.4-496.1-211.63-494.4 215.51 990.5-3.88" fill="#e7994f"/>
               <path d="m10874 1095.1 11.7 5 8.2-21.68-19.9 16.68" fill="#b9b9b9"/>
               <path d="m12717 1266.2 0.1-279.93-6.2-17.359-298.9 130.29 305 167" fill="#df662c"/>
               <path d="m12717 1266.2-305-167 48.2 359.21 256.8 169.28v-361.49" fill="#be541b"/>
               <path d="m12113 1229.6 347.2 228.86-48.2-359.21z" fill="#e09d30"/>
               <path d="m10680 1646.2 201.5-536.21 3.6-9.82-11.7-5-421.9 354.23 96.2 197.31 132.3-0.51" fill="#df687b"/>
               <path d="m9555.5 1631 210.7-181.7-62.13-64.61-148.57 215.99v30.32" fill="#9c2339"/>
               <path d="m9555.5 1600.7 148.57-215.99-148.52-154.42-0.05 370.41" fill="#69232f"/>
               <path d="m10102 1648.4 89.7-244.62-424.98 45.49 192.04 199.7 143.24-0.57" fill="#bc134c"/>
               <path d="m10191 1403.8 102.5-279.38-44.6-91.52-482.88 416.39 424.98-45.49" fill="#da3b63"/>
               <path d="m12717 548.94-135.1 61.008 128.9 359.01 6.2-2.723v-417.3" fill="#d88247"/>
               <path d="m9555.6 1230.2 148.52 154.42 419.31-609.65-480.81 126.03-86.97 55.961-0.05 273.24" fill="#ad002f"/>
               <path d="m10548 1646.7-96.2-197.31-236.5 198.62z" fill="#da544b"/>
               <path d="m10216 1648 236.5-198.63-158.3-324.94-102.5 279.38-89.7 244.62 114-0.43" fill="#dd527b"/>
               <path d="m12582 609.95 135.1-61.008 0.1-300.65-206.8-183.73-77.6 123.95-1.3 1.988 150.5 419.45" fill="#e9a75d"/>
               <path d="m12137 659.84-130.8 210.21 576-261.82-150.5-422.26-294.7 473.87" fill="#e9a75d"/>
               <path d="m12006 870.05-3.2 5.168 409.2 224.03 298.9-130.29-128.9-359.01-576 260.1" fill="#e48b24"/>
               <path d="m11650 443.9 780.4-254.81-102.7-286.35-16.6-14.73-661.4 555.33 0.3 0.562" fill="#f1d365"/>
               <path d="m9555.6 957.01 86.97-55.961-86.97 22.789z" fill="#69232f"/>
               <path d="m11650 443.9 1 1.7 485.2 215.63 294.7-470.73-0.5-1.41-780.4 254.81" fill="#f1cc51"/>
               <path d="m11656 1428.8" fill="#b9b9b9"/>
               <path d="m11656 1428.8" fill="#b9b9b9"/>
               <path d="m11656 1428.8-350.8-555.95-8.3 0.031-123.2 350.19 482.3 205.73" fill="#eeca70"/>
               <path d="m11174 1223 123.2-350.19-159.1 0.617-244.1 204.99-8.2 21.68 288.2 122.9" fill="#de917b"/>
               <path d="m12106 1232.6 6.9-2.99-13.9-9.14z" fill="#b9b9b9"/>
               <path d="m11570 871.76-264.7 1.039 350.8 555.95 221.7-354.09-307.8-202.9" fill="#f5dc4f"/>
               <path d="m11878 1074.7-221.7 354.09 449.9-196.16-7-12.13-221.2-145.8" fill="#e8b845"/>
               <path d="m11949 960.84 149.9 259.62 13.9 9.14 299-130.35-409.2-224.03-53.6 85.621" fill="#efc34b"/>
               <path d="m9555.6 923.84 86.97-22.789 309.5-199.12-396.4-169.08-0.07 390.99" fill="#5d1e3c"/>
               <path d="m9555.7 532.85 396.4 169.08-154.32-449.43-242.07 229.43-0.01 50.922" fill="#533b6e"/>
               <path d="m9555.7 481.93 242.07-229.43 341.63-323.74-583.65 224.9-0.05 328.27" fill="#56369e"/>
               <path d="m11412 30.34-369.8-30.769v349.66z" fill="#8fc3b6"/>
               <path d="m10685 153.78 357 195.45v-349.66z" fill="#7ea1b2"/>
               <path d="m11650 443.34 280.9-235.83-340.8-331.21-178.6 154.04 238.5 413" fill="#c9cb82"/>
            </g>
         </g>
      </g>
   </g>
</svg>
